<?xml version="1.0" encoding="UTF-8" standalone="no"?>
<svg
   width="1280"
   height="320"
   viewBox="0 0 338.66666 84.666664"
   version="1.1"
   id="svg5264"
   inkscape:version="1.1 (c68e22c387, 2021-05-23)"
   sodipodi:docname="torrenttools-banner.svg"
   xmlns:inkscape="http://www.inkscape.org/namespaces/inkscape"
   xmlns:sodipodi="http://sodipodi.sourceforge.net/DTD/sodipodi-0.dtd"
   xmlns="http://www.w3.org/2000/svg"
   xmlns:svg="http://www.w3.org/2000/svg"
   xmlns:rdf="http://www.w3.org/1999/02/22-rdf-syntax-ns#"
   xmlns:cc="http://creativecommons.org/ns#"
   xmlns:dc="http://purl.org/dc/elements/1.1/">
  <defs
     id="defs5258">
    <rect
       x="907.05487"
       y="391.61008"
       width="235.11777"
       height="149.16469"
       id="rect8074" />
    <rect
       x="623.58411"
       y="275.27509"
       width="643.90125"
       height="167.33128"
       id="rect8064" />
  </defs>
  <sodipodi:namedview
     id="base"
     pagecolor="#ffffff"
     bordercolor="#666666"
     borderopacity="1.0"
     inkscape:pageopacity="0.0"
     inkscape:pageshadow="2"
     inkscape:zoom="0.54646324"
     inkscape:cx="736.55458"
     inkscape:cy="84.177666"
     inkscape:document-units="mm"
     inkscape:current-layer="text8070"
     inkscape:document-rotation="0"
     showgrid="false"
     inkscape:lockguides="true"
     showguides="false"
     units="px"
     inkscape:window-width="1920"
     inkscape:window-height="1011"
     inkscape:window-x="0"
     inkscape:window-y="0"
     inkscape:window-maximized="1"
     inkscape:pagecheckerboard="0" />
  <metadata
     id="metadata5261">
    <rdf:RDF>
      <cc:Work
         rdf:about="">
        <dc:format>image/svg+xml</dc:format>
        <dc:type
           rdf:resource="http://purl.org/dc/dcmitype/StillImage" />
      </cc:Work>
    </rdf:RDF>
  </metadata>
  <g
     inkscape:label="Layer 1"
     inkscape:groupmode="layer"
     id="layer1"
     style="display:inline">
    <path
       style="opacity:0.783;fill:#8469ae;fill-opacity:0.372549;stroke-width:1.45657"
       id="path1516"
       sodipodi:type="arc"
       sodipodi:cx="-1110.0787"
       sodipodi:cy="-955.0072"
       sodipodi:rx="134.76573"
       sodipodi:ry="130.33156"
       sodipodi:start="0"
       sodipodi:end="0.0034288389"
       sodipodi:open="true"
       sodipodi:arc-type="arc"
       d="m -975.313,-955.0072 a 134.76573,130.33156 0 0 1 -8e-4,0.44688" />
    <path
       style="opacity:0.783;fill:#8469ae;fill-opacity:0.372549;stroke-width:1.45657"
       id="path1518"
       sodipodi:type="arc"
       sodipodi:cx="-1091.2888"
       sodipodi:cy="-1001.4811"
       sodipodi:rx="7.0207806"
       sodipodi:ry="41.518681"
       sodipodi:start="0"
       sodipodi:end="0.0034288389"
       sodipodi:open="true"
       sodipodi:arc-type="arc"
       d="m -1084.268,-1001.4811 a 7.0207806,41.518681 0 0 1 -10e-5,0.1424" />
    <g
       id="layer1-2"
       inkscape:label="tool layer"
       style="display:inline;opacity:0.990953;mix-blend-mode:normal"
       transform="matrix(1.4565704,0,0,1.4565704,29.087372,-2.6235269)">
      <g
         id="g2234"
         transform="matrix(0.71583144,0,0,0.71583144,19.356101,20.713387)"
         style="opacity:1;fill:#bfb5b5;fill-opacity:1;stroke:none">
        <g
           id="g2178"
           style="fill:#bfb5b5;fill-opacity:1;stroke:none">
          <g
             id="g2540"
             style="fill:#bfb5b5;fill-opacity:1;stroke:none" />
        </g>
        <g
           id="g2180"
           style="fill:#bfb5b5;fill-opacity:1;stroke:none" />
        <g
           id="g2182"
           style="fill:#bfb5b5;fill-opacity:1;stroke:none" />
        <g
           id="g2184"
           style="fill:#bfb5b5;fill-opacity:1;stroke:none" />
        <g
           id="g2186"
           style="fill:#bfb5b5;fill-opacity:1;stroke:none" />
        <g
           id="g2188"
           style="fill:#bfb5b5;fill-opacity:1;stroke:none" />
        <g
           id="g2190"
           style="fill:#bfb5b5;fill-opacity:1;stroke:none" />
        <g
           id="g2192"
           style="fill:#bfb5b5;fill-opacity:1;stroke:none" />
        <g
           id="g2194"
           style="fill:#bfb5b5;fill-opacity:1;stroke:none" />
        <g
           id="g2196"
           style="fill:#bfb5b5;fill-opacity:1;stroke:none" />
        <g
           id="g2198"
           style="fill:#bfb5b5;fill-opacity:1;stroke:none" />
        <g
           id="g2200"
           style="fill:#bfb5b5;fill-opacity:1;stroke:none" />
        <g
           id="g2202"
           style="fill:#bfb5b5;fill-opacity:1;stroke:none" />
        <g
           id="g2204"
           style="fill:#bfb5b5;fill-opacity:1;stroke:none" />
        <g
           id="g2206"
           style="fill:#bfb5b5;fill-opacity:1;stroke:none" />
        <g
           id="g2208"
           style="fill:#bfb5b5;fill-opacity:1;stroke:none" />
      </g>
    </g>
    <g
       id="layer3"
       inkscape:label="bittorrent"
       style="display:inline"
       transform="matrix(0.17476213,0,0,0.17476213,4.9999997,7.3809135)">
      <ellipse
         style="opacity:0.5;fill:#663d44;fill-opacity:0;stroke-width:0.588807"
         id="path20"
         cx="196.45715"
         cy="199.91708"
         transform="matrix(0.99987146,-0.01603292,0.01601687,0.99987172,0,0)"
         rx="116.13042"
         ry="116.18861" />
      <ellipse
         style="opacity:0;fill:#241c1c;fill-opacity:0.372549;stroke-width:0.580798"
         id="path1520"
         cx="197.08478"
         cy="206.44467"
         transform="matrix(0.99987146,-0.01603292,0.01601687,0.99987172,0,0)"
         rx="116.13042"
         ry="116.18861" />
      <g
         id="svgg-6"
         transform="matrix(0.49055859,-0.0078661,0.00786216,0.49080458,100.02557,104.0611)">
        <g
           id="g8028">
          <circle
             style="display:inline;opacity:1;mix-blend-mode:normal;fill:#e3dde8;fill-opacity:1;stroke:none;stroke-width:5.1;stroke-miterlimit:4;stroke-dasharray:none;stroke-opacity:1"
             id="path4980"
             cy="200"
             cx="200"
             r="200"
             transform="matrix(2.037969,0.03266243,-0.03264607,2.0369476,-200.45182,-215.23416)" />
          <path
             id="path2176"
             style="display:inline;opacity:1;mix-blend-mode:normal;fill:#9d9595;fill-opacity:1;stroke:none;stroke-width:0.715831;stroke-opacity:1"
             d="m 178.29297,26.335938 v 34.408203 c -10.09108,1.54548 -19.84295,4.176507 -29.13086,7.757812 L 131.99414,38.757812 94.384766,60.466797 111.51367,90.167969 C 103.67102,96.505224 96.50543,103.67245 90.1875,111.51367 L 60.466797,94.365234 38.757812,131.95117 68.521484,149.14453 c -3.601348,9.28434 -6.213048,19.03732 -7.757812,29.14844 H 26.335938 v 43.41406 h 34.429687 c 1.544764,10.11327 4.154511,19.86443 7.755859,29.15235 l -29.763672,17.17187 21.708985,37.60547 29.722656,-17.14844 c 6.31793,7.84408 13.481567,15.00682 21.324217,21.34766 L 94.386719,339.53516 131.99609,361.24023 149.16797,331.5 c 9.28433,3.60493 19.03588,6.19014 29.12695,7.75781 v 34.40625 h 43.41406 v -34.40625 c 10.1326,-1.56695 19.88846,-4.15288 29.16993,-7.75781 l 17.17187,29.74023 37.61133,-21.70507 -17.17188,-29.69922 c 7.88417,-6.34084 15.00736,-13.50339 21.3711,-21.3711 l 29.67578,17.15235 21.70898,-37.58594 -29.72656,-17.17187 c 3.60851,-9.28792 6.18956,-19.03908 7.76367,-29.15235 h 34.38086 v -43.41406 h -34.38281 c -1.56982,-10.11112 -4.15321,-19.8641 -7.76172,-29.14844 L 361.24609,131.9707 339.5332,94.365234 309.85352,111.51367 C 303.4955,103.66959 296.3744,96.505419 288.49023,90.166016 L 305.6543,60.466797 268.04883,38.757812 250.87891,68.501953 c -9.28505,-3.604927 -19.03733,-6.213375 -29.16993,-7.761719 V 26.335938 Z M 200,90 c 60.75132,0 110,49.24868 110,110 0,60.75132 -49.24868,110 -110,110 C 139.24868,310 90,260.75132 90,200 90,139.24868 139.24868,90 200,90 Z"
             transform="matrix(2.037969,0.03266243,-0.03264607,2.0369476,-200.45182,-215.23416)" />
          <path
             id="path0-7"
             d="M 189.023,0.367 C 96.388,5.17 18.51,74.546 3.026,166.057 c -13.494,79.754 20.563,157.281 88.821,202.185 12.503,8.226 23.506,13.667 24.472,12.103 0.329,-0.532 0.188,-0.634 -5.67,-4.087 -42.615,-25.122 -68.913,-64.75 -75.451,-113.696 -1.25,-9.353 -0.42,-29.151 1.758,-41.93 14.15,-83.043 90.646,-149.049 172.778,-149.083 l 4.575,-0.002 v 15.258 15.257 l -6.406,0.201 c -55.631,1.746 -107.216,36.981 -129.692,88.586 -17.551,40.296 -12.414,91.306 13.027,129.361 26.07,38.995 63.681,61.741 115.085,69.601 21.351,3.264 53.078,3.87 53.078,1.014 0,-0.614 -0.412,-0.651 -9.318,-0.856 -83.134,-1.907 -136.992,-33.665 -161.346,-95.141 -20.215,-51.027 -9.345,-102.406 30.065,-142.109 38.916,-39.205 95.738,-51.41 147.587,-31.7 2.116,0.804 2.595,-0.797 -4.456,14.921 l -6.119,13.644 -5.249,-1.755 c -17.58,-5.88 -37.582,-7.016 -56.222,-3.193 -47.311,9.702 -82.941,53.509 -82.922,101.953 0.029,77.384 76.691,128.538 178.783,119.296 16.103,-1.458 27.932,-3.419 27.932,-4.63 0,-0.789 -0.852,-0.837 -6.228,-0.353 -75.518,6.796 -125.303,-5.751 -159.669,-40.242 -25.677,-25.771 -35.562,-56.407 -28.802,-89.264 17.421,-84.675 126.332,-106.321 174.101,-34.603 1.811,2.72 3.294,5.138 3.294,5.373 0,0.324 -17.455,9.853 -25.528,13.936 l -1.069,0.541 -1.882,-2.858 c -29.505,-44.804 -98.319,-37.129 -115.561,12.888 -6.676,19.368 -4.501,42.552 5.366,57.187 28.746,42.641 83.163,56.973 176.777,46.559 15.799,-1.757 13.159,-0.494 20.101,-9.62 C 426.214,232.474 408.584,106.496 319.716,39.827 282.35,11.796 236.367,-2.088 189.023,0.367"
             stroke="none"
             fill="#64349c"
             fill-rule="evenodd" />
        </g>
        <path
           id="path1-5"
           d=""
           stroke="none"
           fill="#6c349c"
           fill-rule="evenodd" />
      </g>
    </g>
    <text
       xml:space="preserve"
       id="text8062"
       style="font-style:normal;font-weight:normal;font-size:28.2222px;line-height:1.25;font-family:sans-serif;white-space:pre;shape-inside:url(#rect8064);fill:#000000;fill-opacity:1;stroke:none"
       transform="translate(-12.41866,-28.153134)" />
    <g
       id="g8104">
      <g
         aria-label="torrenttools"
         transform="matrix(1.4754447,0,0,1.4754447,-1263.8362,-513.58618)"
         id="text8070"
         style="font-size:28.2222px;font-family:Comfortaa;-inkscape-font-specification:Comfortaa;white-space:pre;stroke-width:0.264583">
        <path
           style="color:#000000;-inkscape-font-specification:Comfortaa;fill:#000000;-inkscape-stroke:none"
           d="m 917.93725,385.55809 h -0.762 c -1.74977,0 -3.01977,-1.35466 -3.01977,-3.27377 v -7.53533 h 3.18911 c 0.59266,0 0.98777,-0.39511 0.98777,-0.93133 0,-0.56445 -0.39511,-0.95956 -0.98777,-0.95956 h -3.18911 v -4.37444 c 0,-0.64911 -0.45156,-1.10067 -1.10067,-1.10067 -0.62089,0 -1.07244,0.45156 -1.07244,1.10067 v 4.37444 h -1.83445 c -0.59266,0 -0.98777,0.39511 -0.98777,0.95956 0,0.53622 0.39511,0.93133 0.98777,0.93133 h 1.83445 v 7.53533 c 0,3.13266 2.17311,5.41866 5.19288,5.44688 h 0.59267 c 0.67733,0 1.18533,-0.45155 1.18533,-1.07244 0,-0.64911 -0.42333,-1.10067 -1.016,-1.10067 z"
           id="path14438" />
        <path
           style="color:#000000;-inkscape-font-specification:Comfortaa;fill:#000000;-inkscape-stroke:none"
           d="m 929.50831,387.87231 c 4.51555,0 7.84577,-3.33022 7.84577,-7.84577 -0.0282,-4.54377 -3.33022,-7.87399 -7.84577,-7.87399 -4.54377,0 -7.84577,3.33022 -7.84577,7.87399 0,4.51555 3.302,7.84577 7.84577,7.84577 z m 0,-1.97555 c -3.27377,0 -5.72911,-2.48356 -5.72911,-5.87022 0,-3.41489 2.45534,-5.89844 5.72911,-5.89844 3.302,0 5.70089,2.48355 5.70089,5.89844 0,3.38666 -2.39889,5.87022 -5.70089,5.87022 z"
           id="path14440" />
        <path
           style="color:#000000;-inkscape-font-specification:Comfortaa;fill:#000000;-inkscape-stroke:none"
           d="m 948.55824,372.12432 c -1.97555,0 -3.72533,0.93134 -4.82599,2.48356 v -1.24178 c 0,-0.67733 -0.39511,-1.07244 -1.07245,-1.07244 -0.67733,0 -1.07244,0.39511 -1.07244,1.07244 v 13.29266 c 0,0.67733 0.39511,1.07244 1.07244,1.07244 0.67734,0 1.07245,-0.39511 1.07245,-1.07244 v -8.43844 c 0,-2.62466 2.31422,-4.318 5.47511,-4.03578 0.93133,0.0564 1.69333,0.22578 1.89088,-0.62088 0.22578,-0.93134 -0.79022,-1.43934 -2.54,-1.43934 z"
           id="path14442" />
        <path
           style="color:#000000;-inkscape-font-specification:Comfortaa;fill:#000000;-inkscape-stroke:none"
           d="m 961.48397,372.12432 c -1.97556,0 -3.72534,0.93134 -4.826,2.48356 v -1.24178 c 0,-0.67733 -0.39511,-1.07244 -1.07244,-1.07244 -0.67734,0 -1.07245,0.39511 -1.07245,1.07244 v 13.29266 c 0,0.67733 0.39511,1.07244 1.07245,1.07244 0.67733,0 1.07244,-0.39511 1.07244,-1.07244 v -8.43844 c 0,-2.62466 2.31422,-4.318 5.47511,-4.03578 0.93133,0.0564 1.69333,0.22578 1.89088,-0.62088 0.22578,-0.93134 -0.79022,-1.43934 -2.53999,-1.43934 z"
           id="path14444" />
        <path
           style="color:#000000;-inkscape-font-specification:Comfortaa;fill:#000000;-inkscape-stroke:none"
           d="m 972.88566,372.15255 c -4.34622,0 -7.39422,3.27377 -7.39422,7.87399 0,4.60022 3.24555,7.84577 7.81755,7.84577 1.74978,0 3.89466,-0.762 5.13644,-1.83444 0.45156,-0.39511 0.42333,-0.98778 -0.0564,-1.41111 -0.39511,-0.31045 -0.95956,-0.28222 -1.38289,0.0564 -0.81845,0.70556 -2.34244,1.24178 -3.69711,1.24178 -3.16089,0 -5.44688,-2.11666 -5.75733,-5.19288 h 11.40177 c 0.59267,0 1.016,-0.39512 1.016,-0.98778 0,-4.43089 -2.82222,-7.59177 -7.08377,-7.59177 z m 0,1.94733 c 2.85044,0 4.76955,1.97555 5.05177,4.82599 h -10.32932 c 0.39511,-2.85044 2.39888,-4.82599 5.27755,-4.82599 z"
           id="path14446" />
        <path
           style="color:#000000;-inkscape-font-specification:Comfortaa;fill:#000000;-inkscape-stroke:none"
           d="m 990.94782,372.12432 c -2.08844,0 -3.92288,0.84667 -5.13644,2.22956 v -0.95956 c 0,-0.64911 -0.42333,-1.10066 -1.07244,-1.10066 -0.64911,0 -1.10067,0.45155 -1.10067,1.10066 v 13.26444 c 0,0.64911 0.45156,1.07244 1.10067,1.07244 0.64911,0 1.07244,-0.42333 1.07244,-1.07244 v -8.35377 c 0,-2.34245 2.11667,-4.12045 4.91066,-4.12045 2.87867,0 5.05178,1.66511 5.05178,5.13645 v 7.33777 c 0,0.62089 0.47978,1.07244 1.10066,1.07244 0.59267,0 1.07245,-0.45155 1.07245,-1.07244 v -7.33777 c 0,-4.65667 -3.01978,-7.19667 -6.99911,-7.19667 z"
           id="path14448" />
        <path
           style="color:#000000;-inkscape-font-specification:Comfortaa;fill:#000000;-inkscape-stroke:none"
           d="m 1009.5462,385.55809 h -0.762 c -1.7498,0 -3.0198,-1.35466 -3.0198,-3.27377 v -7.53533 h 3.1891 c 0.5927,0 0.9878,-0.39511 0.9878,-0.93133 0,-0.56445 -0.3951,-0.95956 -0.9878,-0.95956 h -3.1891 v -4.37444 c 0,-0.64911 -0.4515,-1.10067 -1.1006,-1.10067 -0.6209,0 -1.0725,0.45156 -1.0725,1.10067 v 4.37444 h -1.8344 c -0.5927,0 -0.9878,0.39511 -0.9878,0.95956 0,0.53622 0.3951,0.93133 0.9878,0.93133 h 1.8344 v 7.53533 c 0,3.13266 2.1731,5.41866 5.1929,5.44688 h 0.5927 c 0.6773,0 1.1853,-0.45155 1.1853,-1.07244 0,-0.64911 -0.4233,-1.10067 -1.016,-1.10067 z"
           id="path14450" />
        <path
           style="color:#000000;-inkscape-font-specification:Comfortaa;fill:#000000;-inkscape-stroke:none"
           d="m 1020.8915,385.55809 h -0.762 c -1.7498,0 -3.0198,-1.35466 -3.0198,-3.27377 v -7.53533 h 3.1891 c 0.5927,0 0.9878,-0.39511 0.9878,-0.93133 0,-0.56445 -0.3951,-0.95956 -0.9878,-0.95956 h -3.1891 v -4.37444 c 0,-0.64911 -0.4515,-1.10067 -1.1007,-1.10067 -0.6208,0 -1.0724,0.45156 -1.0724,1.10067 v 4.37444 h -1.8344 c -0.5927,0 -0.9878,0.39511 -0.9878,0.95956 0,0.53622 0.3951,0.93133 0.9878,0.93133 h 1.8344 v 7.53533 c 0,3.13266 2.1731,5.41866 5.1929,5.44688 h 0.5926 c 0.6774,0 1.1854,-0.45155 1.1854,-1.07244 0,-0.64911 -0.4234,-1.10067 -1.016,-1.10067 z"
           id="path14452" />
        <path
           style="color:#000000;-inkscape-font-specification:Comfortaa;fill:#000000;-inkscape-stroke:none"
           d="m 1032.4625,387.87231 c 4.5156,0 7.8458,-3.33022 7.8458,-7.84577 -0.028,-4.54377 -3.3302,-7.87399 -7.8458,-7.87399 -4.5437,0 -7.8457,3.33022 -7.8457,7.87399 0,4.51555 3.302,7.84577 7.8457,7.84577 z m 0,-1.97555 c -3.2737,0 -5.7291,-2.48356 -5.7291,-5.87022 0,-3.41489 2.4554,-5.89844 5.7291,-5.89844 3.302,0 5.7009,2.48355 5.7009,5.89844 0,3.38666 -2.3989,5.87022 -5.7009,5.87022 z"
           id="path14454" />
        <path
           style="color:#000000;-inkscape-font-specification:Comfortaa;fill:#000000;-inkscape-stroke:none"
           d="m 1051.5689,387.87231 c 4.5156,0 7.8458,-3.33022 7.8458,-7.84577 -0.028,-4.54377 -3.3302,-7.87399 -7.8458,-7.87399 -4.5438,0 -7.8458,3.33022 -7.8458,7.87399 0,4.51555 3.302,7.84577 7.8458,7.84577 z m 0,-1.97555 c -3.2738,0 -5.7291,-2.48356 -5.7291,-5.87022 0,-3.41489 2.4553,-5.89844 5.7291,-5.89844 3.302,0 5.7009,2.48355 5.7009,5.89844 0,3.38666 -2.3989,5.87022 -5.7009,5.87022 z"
           id="path14456" />
        <path
           style="color:#000000;-inkscape-font-specification:Comfortaa;fill:#000000;-inkscape-stroke:none"
           d="m 1066.9782,387.7312 h 0.3669 c 0.762,0 1.27,-0.45155 1.27,-1.07244 0,-0.64911 -0.3669,-1.07245 -0.9314,-1.07245 h -0.7055 c -1.016,0 -1.7498,-1.12888 -1.7498,-2.73755 v -16.08665 c 0,-0.62089 -0.4233,-1.07245 -1.0724,-1.07245 -0.6209,0 -1.0725,0.45156 -1.0725,1.07245 v 16.08665 c 0,2.85044 1.6087,4.88244 3.8947,4.88244 z"
           id="path14458" />
        <path
           style="color:#000000;-inkscape-font-specification:Comfortaa;fill:#000000;-inkscape-stroke:none"
           d="m 1076.9971,387.87231 c 3.5277,0 6.0677,-1.83444 6.0677,-4.45911 0,-2.08844 -1.3829,-3.78177 -5.6162,-4.48733 -3.0762,-0.50799 -3.9793,-1.29822 -3.9793,-2.59644 0,-1.27 1.3264,-2.22955 3.4149,-2.22955 1.6369,0 2.8504,0.508 3.7817,1.58044 0.3952,0.42333 1.0725,0.56445 1.524,0.28222 0.5363,-0.33866 0.5927,-0.90311 0.2258,-1.41111 -1.1006,-1.46755 -2.9351,-2.39888 -5.4751,-2.39888 -3.048,0 -5.588,1.46755 -5.588,4.31799 0,2.06022 1.7216,3.64067 5.5033,4.26156 2.9352,0.47977 4.1205,1.38288 4.1205,2.70933 -0.028,1.35466 -1.2136,2.45533 -3.9793,2.45533 -1.778,0 -3.3585,-0.56445 -4.2616,-1.63689 -0.3951,-0.42333 -0.9878,-0.53622 -1.524,-0.14111 -0.508,0.39511 -0.5927,1.04422 -0.1693,1.49578 1.3546,1.49577 3.7253,2.25777 5.9549,2.25777 z"
           id="path14460" />
      </g>
    </g>
    <text
       xml:space="preserve"
       id="text8072"
       style="font-style:normal;font-weight:normal;font-size:28.2222px;line-height:1.25;font-family:sans-serif;white-space:pre;shape-inside:url(#rect8074);fill:#000000;fill-opacity:1;stroke:none"
       transform="translate(-12.41866,-28.153134)" />
  </g>
</svg>
