<?xml version="1.0" encoding="utf-8" standalone="no"?>
<!DOCTYPE svg PUBLIC "-//W3C//DTD SVG 1.1//EN"
  "http://www.w3.org/Graphics/SVG/1.1/DTD/svg11.dtd">
<!-- Created with matplotlib (https://matplotlib.org/) -->
<svg height="288pt" version="1.1" viewBox="0 0 720 288" width="720pt" xmlns="http://www.w3.org/2000/svg" xmlns:xlink="http://www.w3.org/1999/xlink">
 <metadata>
  <rdf:RDF xmlns:cc="http://creativecommons.org/ns#" xmlns:dc="http://purl.org/dc/elements/1.1/" xmlns:rdf="http://www.w3.org/1999/02/22-rdf-syntax-ns#">
   <cc:Work>
    <dc:type rdf:resource="http://purl.org/dc/dcmitype/StillImage"/>
    <dc:date>2021-01-04T15:46:11.065260</dc:date>
    <dc:format>image/svg+xml</dc:format>
    <dc:creator>
     <cc:Agent>
      <dc:title>Matplotlib v3.3.3, https://matplotlib.org/</dc:title>
     </cc:Agent>
    </dc:creator>
   </cc:Work>
  </rdf:RDF>
 </metadata>
 <defs>
  <style type="text/css">*{stroke-linecap:butt;stroke-linejoin:round;}</style>
 </defs>
 <g id="figure_1">
  <g id="patch_1">
   <path d="M 0 288 
L 720 288 
L 720 0 
L 0 0 
z
" style="fill:none;"/>
  </g>
  <g id="axes_1">
   <g id="patch_2">
    <path d="M 47.8 246.2 
L 510.05 246.2 
L 510.05 10.8 
L 47.8 10.8 
z
" style="fill:#ffffff;"/>
   </g>
   <g id="patch_3">
    <path clip-path="url(#pc9714c8b0c)" d="M 68.811364 246.2 
L 76.183772 246.2 
L 76.183772 193.667025 
L 68.811364 193.667025 
z
" style="fill:#1f77b4;"/>
   </g>
   <g id="patch_4">
    <path clip-path="url(#pc9714c8b0c)" d="M 157.280263 246.2 
L 164.652671 246.2 
L 164.652671 216.366202 
L 157.280263 216.366202 
z
" style="fill:#1f77b4;"/>
   </g>
   <g id="patch_5">
    <path clip-path="url(#pc9714c8b0c)" d="M 245.749163 246.2 
L 253.121571 246.2 
L 253.121571 220.400442 
L 245.749163 220.400442 
z
" style="fill:#1f77b4;"/>
   </g>
   <g id="patch_6">
    <path clip-path="url(#pc9714c8b0c)" d="M 334.218062 246.2 
L 341.59047 246.2 
L 341.59047 197.966571 
L 334.218062 197.966571 
z
" style="fill:#1f77b4;"/>
   </g>
   <g id="patch_7">
    <path clip-path="url(#pc9714c8b0c)" d="M 422.686962 246.2 
L 430.05937 246.2 
L 430.05937 178.959325 
L 422.686962 178.959325 
z
" style="fill:#1f77b4;"/>
   </g>
   <g id="patch_8">
    <path clip-path="url(#pc9714c8b0c)" d="M 76.183772 246.2 
L 83.55618 246.2 
L 83.55618 58.825015 
L 76.183772 58.825015 
z
" style="fill:#ff7f0e;"/>
   </g>
   <g id="patch_9">
    <path clip-path="url(#pc9714c8b0c)" d="M 164.652671 246.2 
L 172.02508 246.2 
L 172.02508 87.759062 
L 164.652671 87.759062 
z
" style="fill:#ff7f0e;"/>
   </g>
   <g id="patch_10">
    <path clip-path="url(#pc9714c8b0c)" d="M 253.121571 246.2 
L 260.493979 246.2 
L 260.493979 40.836722 
L 253.121571 40.836722 
z
" style="fill:#ff7f0e;"/>
   </g>
   <g id="patch_11">
    <path clip-path="url(#pc9714c8b0c)" d="M 341.59047 246.2 
L 348.962879 246.2 
L 348.962879 56.628033 
L 341.59047 56.628033 
z
" style="fill:#ff7f0e;"/>
   </g>
   <g id="patch_12">
    <path clip-path="url(#pc9714c8b0c)" d="M 430.05937 246.2 
L 437.431778 246.2 
L 437.431778 62.374991 
L 430.05937 62.374991 
z
" style="fill:#ff7f0e;"/>
   </g>
   <g id="patch_13">
    <path clip-path="url(#pc9714c8b0c)" d="M 83.55618 246.2 
L 90.928589 246.2 
L 90.928589 39.171902 
L 83.55618 39.171902 
z
" style="fill:#2ca02c;"/>
   </g>
   <g id="patch_14">
    <path clip-path="url(#pc9714c8b0c)" d="M 172.02508 246.2 
L 179.397488 246.2 
L 179.397488 43.527144 
L 172.02508 43.527144 
z
" style="fill:#2ca02c;"/>
   </g>
   <g id="patch_15">
    <path clip-path="url(#pc9714c8b0c)" d="M 260.493979 246.2 
L 267.866388 246.2 
L 267.866388 48.823468 
L 260.493979 48.823468 
z
" style="fill:#2ca02c;"/>
   </g>
   <g id="patch_16">
    <path clip-path="url(#pc9714c8b0c)" d="M 348.962879 246.2 
L 356.335287 246.2 
L 356.335287 42.861241 
L 348.962879 42.861241 
z
" style="fill:#2ca02c;"/>
   </g>
   <g id="patch_17">
    <path clip-path="url(#pc9714c8b0c)" d="M 437.431778 246.2 
L 444.804187 246.2 
L 444.804187 47.71948 
L 437.431778 47.71948 
z
" style="fill:#2ca02c;"/>
   </g>
   <g id="patch_18">
    <path clip-path="url(#pc9714c8b0c)" d="M 90.928589 246.2 
L 98.300997 246.2 
L 98.300997 46.278893 
L 90.928589 46.278893 
z
" style="fill:#d62728;"/>
   </g>
   <g id="patch_19">
    <path clip-path="url(#pc9714c8b0c)" d="M 179.397488 246.2 
L 186.769896 246.2 
L 186.769896 39.171902 
L 179.397488 39.171902 
z
" style="fill:#d62728;"/>
   </g>
   <g id="patch_20">
    <path clip-path="url(#pc9714c8b0c)" d="M 267.866388 246.2 
L 275.238796 246.2 
L 275.238796 39.171902 
L 267.866388 39.171902 
z
" style="fill:#d62728;"/>
   </g>
   <g id="patch_21">
    <path clip-path="url(#pc9714c8b0c)" d="M 356.335287 246.2 
L 363.707695 246.2 
L 363.707695 39.171902 
L 356.335287 39.171902 
z
" style="fill:#d62728;"/>
   </g>
   <g id="patch_22">
    <path clip-path="url(#pc9714c8b0c)" d="M 444.804187 246.2 
L 452.176595 246.2 
L 452.176595 39.171902 
L 444.804187 39.171902 
z
" style="fill:#d62728;"/>
   </g>
   <g id="patch_23">
    <path clip-path="url(#pc9714c8b0c)" d="M 98.300997 246.2 
L 105.673405 246.2 
L 105.673405 246.2 
L 98.300997 246.2 
z
" style="fill:#9467bd;"/>
   </g>
   <g id="patch_24">
    <path clip-path="url(#pc9714c8b0c)" d="M 186.769896 246.2 
L 194.142305 246.2 
L 194.142305 238.74417 
L 186.769896 238.74417 
z
" style="fill:#9467bd;"/>
   </g>
   <g id="patch_25">
    <path clip-path="url(#pc9714c8b0c)" d="M 275.238796 246.2 
L 282.611204 246.2 
L 282.611204 246.2 
L 275.238796 246.2 
z
" style="fill:#9467bd;"/>
   </g>
   <g id="patch_26">
    <path clip-path="url(#pc9714c8b0c)" d="M 363.707695 246.2 
L 371.080104 246.2 
L 371.080104 246.045656 
L 363.707695 246.045656 
z
" style="fill:#9467bd;"/>
   </g>
   <g id="patch_27">
    <path clip-path="url(#pc9714c8b0c)" d="M 452.176595 246.2 
L 459.549003 246.2 
L 459.549003 241.285627 
L 452.176595 241.285627 
z
" style="fill:#9467bd;"/>
   </g>
   <g id="patch_28">
    <path clip-path="url(#pc9714c8b0c)" d="M 105.673405 246.2 
L 113.045813 246.2 
L 113.045813 230.720563 
L 105.673405 230.720563 
z
" style="fill:#8c564b;"/>
   </g>
   <g id="patch_29">
    <path clip-path="url(#pc9714c8b0c)" d="M 194.142305 246.2 
L 201.514713 246.2 
L 201.514713 167.465626 
L 194.142305 167.465626 
z
" style="fill:#8c564b;"/>
   </g>
   <g id="patch_30">
    <path clip-path="url(#pc9714c8b0c)" d="M 282.611204 246.2 
L 289.983612 246.2 
L 289.983612 164.786986 
L 282.611204 164.786986 
z
" style="fill:#8c564b;"/>
   </g>
   <g id="patch_31">
    <path clip-path="url(#pc9714c8b0c)" d="M 371.080104 246.2 
L 378.452512 246.2 
L 378.452512 172.357383 
L 371.080104 172.357383 
z
" style="fill:#8c564b;"/>
   </g>
   <g id="patch_32">
    <path clip-path="url(#pc9714c8b0c)" d="M 459.549003 246.2 
L 466.921411 246.2 
L 466.921411 215.967076 
L 459.549003 215.967076 
z
" style="fill:#8c564b;"/>
   </g>
   <g id="patch_33">
    <path clip-path="url(#pc9714c8b0c)" d="M 113.045813 246.2 
L 120.418222 246.2 
L 120.418222 230.509209 
L 113.045813 230.509209 
z
" style="fill:#e377c2;"/>
   </g>
   <g id="patch_34">
    <path clip-path="url(#pc9714c8b0c)" d="M 201.514713 246.2 
L 208.887121 246.2 
L 208.887121 230.288728 
L 201.514713 230.288728 
z
" style="fill:#e377c2;"/>
   </g>
   <g id="patch_35">
    <path clip-path="url(#pc9714c8b0c)" d="M 289.983612 246.2 
L 297.356021 246.2 
L 297.356021 152.615017 
L 289.983612 152.615017 
z
" style="fill:#e377c2;"/>
   </g>
   <g id="patch_36">
    <path clip-path="url(#pc9714c8b0c)" d="M 378.452512 246.2 
L 385.82492 246.2 
L 385.82492 221.671967 
L 378.452512 221.671967 
z
" style="fill:#e377c2;"/>
   </g>
   <g id="patch_37">
    <path clip-path="url(#pc9714c8b0c)" d="M 466.921411 246.2 
L 474.29382 246.2 
L 474.29382 238.690143 
L 466.921411 238.690143 
z
" style="fill:#e377c2;"/>
   </g>
   <g id="patch_38">
    <path clip-path="url(#pc9714c8b0c)" d="M 120.418222 246.2 
L 127.79063 246.2 
L 127.79063 244.856514 
L 120.418222 244.856514 
z
" style="fill:#7f7f7f;"/>
   </g>
   <g id="patch_39">
    <path clip-path="url(#pc9714c8b0c)" d="M 208.887121 246.2 
L 216.25953 246.2 
L 216.25953 245.599337 
L 208.887121 245.599337 
z
" style="fill:#7f7f7f;"/>
   </g>
   <g id="patch_40">
    <path clip-path="url(#pc9714c8b0c)" d="M 297.356021 246.2 
L 304.728429 246.2 
L 304.728429 246.14038 
L 297.356021 246.14038 
z
" style="fill:#7f7f7f;"/>
   </g>
   <g id="patch_41">
    <path clip-path="url(#pc9714c8b0c)" d="M 385.82492 246.2 
L 393.197329 246.2 
L 393.197329 245.261824 
L 385.82492 245.261824 
z
" style="fill:#7f7f7f;"/>
   </g>
   <g id="patch_42">
    <path clip-path="url(#pc9714c8b0c)" d="M 474.29382 246.2 
L 481.666228 246.2 
L 481.666228 244.906488 
L 474.29382 244.906488 
z
" style="fill:#7f7f7f;"/>
   </g>
   <g id="patch_43">
    <path clip-path="url(#pc9714c8b0c)" d="M 127.79063 246.2 
L 135.163038 246.2 
L 135.163038 239.582908 
L 127.79063 239.582908 
z
" style="fill:#bcbd22;"/>
   </g>
   <g id="patch_44">
    <path clip-path="url(#pc9714c8b0c)" d="M 216.25953 246.2 
L 223.631938 246.2 
L 223.631938 235.588457 
L 216.25953 235.588457 
z
" style="fill:#bcbd22;"/>
   </g>
   <g id="patch_45">
    <path clip-path="url(#pc9714c8b0c)" d="M 304.728429 246.2 
L 312.100837 246.2 
L 312.100837 229.363298 
L 304.728429 229.363298 
z
" style="fill:#bcbd22;"/>
   </g>
   <g id="patch_46">
    <path clip-path="url(#pc9714c8b0c)" d="M 393.197329 246.2 
L 400.569737 246.2 
L 400.569737 234.821916 
L 393.197329 234.821916 
z
" style="fill:#bcbd22;"/>
   </g>
   <g id="patch_47">
    <path clip-path="url(#pc9714c8b0c)" d="M 481.666228 246.2 
L 489.038636 246.2 
L 489.038636 241.224941 
L 481.666228 241.224941 
z
" style="fill:#bcbd22;"/>
   </g>
   <g id="matplotlib.axis_1">
    <g id="xtick_1">
     <g id="line2d_1">
      <defs>
       <path d="M 0 0 
L 0 3.5 
" id="mb1c7b73626" style="stroke:#000000;stroke-width:0.8;"/>
      </defs>
      <g>
       <use style="stroke:#000000;stroke-width:0.8;" x="101.987201" xlink:href="#mb1c7b73626" y="246.2"/>
      </g>
     </g>
     <g id="text_1">
      <!-- camelyon17 -->
      <g transform="translate(71.287982 260.798437)scale(0.1 -0.1)">
       <defs>
        <path d="M 48.78125 52.59375 
L 48.78125 44.1875 
Q 44.96875 46.296875 41.140625 47.34375 
Q 37.3125 48.390625 33.40625 48.390625 
Q 24.65625 48.390625 19.8125 42.84375 
Q 14.984375 37.3125 14.984375 27.296875 
Q 14.984375 17.28125 19.8125 11.734375 
Q 24.65625 6.203125 33.40625 6.203125 
Q 37.3125 6.203125 41.140625 7.25 
Q 44.96875 8.296875 48.78125 10.40625 
L 48.78125 2.09375 
Q 45.015625 0.34375 40.984375 -0.53125 
Q 36.96875 -1.421875 32.421875 -1.421875 
Q 20.0625 -1.421875 12.78125 6.34375 
Q 5.515625 14.109375 5.515625 27.296875 
Q 5.515625 40.671875 12.859375 48.328125 
Q 20.21875 56 33.015625 56 
Q 37.15625 56 41.109375 55.140625 
Q 45.0625 54.296875 48.78125 52.59375 
z
" id="DejaVuSans-99"/>
        <path d="M 34.28125 27.484375 
Q 23.390625 27.484375 19.1875 25 
Q 14.984375 22.515625 14.984375 16.5 
Q 14.984375 11.71875 18.140625 8.90625 
Q 21.296875 6.109375 26.703125 6.109375 
Q 34.1875 6.109375 38.703125 11.40625 
Q 43.21875 16.703125 43.21875 25.484375 
L 43.21875 27.484375 
z
M 52.203125 31.203125 
L 52.203125 0 
L 43.21875 0 
L 43.21875 8.296875 
Q 40.140625 3.328125 35.546875 0.953125 
Q 30.953125 -1.421875 24.3125 -1.421875 
Q 15.921875 -1.421875 10.953125 3.296875 
Q 6 8.015625 6 15.921875 
Q 6 25.140625 12.171875 29.828125 
Q 18.359375 34.515625 30.609375 34.515625 
L 43.21875 34.515625 
L 43.21875 35.40625 
Q 43.21875 41.609375 39.140625 45 
Q 35.0625 48.390625 27.6875 48.390625 
Q 23 48.390625 18.546875 47.265625 
Q 14.109375 46.140625 10.015625 43.890625 
L 10.015625 52.203125 
Q 14.9375 54.109375 19.578125 55.046875 
Q 24.21875 56 28.609375 56 
Q 40.484375 56 46.34375 49.84375 
Q 52.203125 43.703125 52.203125 31.203125 
z
" id="DejaVuSans-97"/>
        <path d="M 52 44.1875 
Q 55.375 50.25 60.0625 53.125 
Q 64.75 56 71.09375 56 
Q 79.640625 56 84.28125 50.015625 
Q 88.921875 44.046875 88.921875 33.015625 
L 88.921875 0 
L 79.890625 0 
L 79.890625 32.71875 
Q 79.890625 40.578125 77.09375 44.375 
Q 74.3125 48.1875 68.609375 48.1875 
Q 61.625 48.1875 57.5625 43.546875 
Q 53.515625 38.921875 53.515625 30.90625 
L 53.515625 0 
L 44.484375 0 
L 44.484375 32.71875 
Q 44.484375 40.625 41.703125 44.40625 
Q 38.921875 48.1875 33.109375 48.1875 
Q 26.21875 48.1875 22.15625 43.53125 
Q 18.109375 38.875 18.109375 30.90625 
L 18.109375 0 
L 9.078125 0 
L 9.078125 54.6875 
L 18.109375 54.6875 
L 18.109375 46.1875 
Q 21.1875 51.21875 25.484375 53.609375 
Q 29.78125 56 35.6875 56 
Q 41.65625 56 45.828125 52.96875 
Q 50 49.953125 52 44.1875 
z
" id="DejaVuSans-109"/>
        <path d="M 56.203125 29.59375 
L 56.203125 25.203125 
L 14.890625 25.203125 
Q 15.484375 15.921875 20.484375 11.0625 
Q 25.484375 6.203125 34.421875 6.203125 
Q 39.59375 6.203125 44.453125 7.46875 
Q 49.3125 8.734375 54.109375 11.28125 
L 54.109375 2.78125 
Q 49.265625 0.734375 44.1875 -0.34375 
Q 39.109375 -1.421875 33.890625 -1.421875 
Q 20.796875 -1.421875 13.15625 6.1875 
Q 5.515625 13.8125 5.515625 26.8125 
Q 5.515625 40.234375 12.765625 48.109375 
Q 20.015625 56 32.328125 56 
Q 43.359375 56 49.78125 48.890625 
Q 56.203125 41.796875 56.203125 29.59375 
z
M 47.21875 32.234375 
Q 47.125 39.59375 43.09375 43.984375 
Q 39.0625 48.390625 32.421875 48.390625 
Q 24.90625 48.390625 20.390625 44.140625 
Q 15.875 39.890625 15.1875 32.171875 
z
" id="DejaVuSans-101"/>
        <path d="M 9.421875 75.984375 
L 18.40625 75.984375 
L 18.40625 0 
L 9.421875 0 
z
" id="DejaVuSans-108"/>
        <path d="M 32.171875 -5.078125 
Q 28.375 -14.84375 24.75 -17.8125 
Q 21.140625 -20.796875 15.09375 -20.796875 
L 7.90625 -20.796875 
L 7.90625 -13.28125 
L 13.1875 -13.28125 
Q 16.890625 -13.28125 18.9375 -11.515625 
Q 21 -9.765625 23.484375 -3.21875 
L 25.09375 0.875 
L 2.984375 54.6875 
L 12.5 54.6875 
L 29.59375 11.921875 
L 46.6875 54.6875 
L 56.203125 54.6875 
z
" id="DejaVuSans-121"/>
        <path d="M 30.609375 48.390625 
Q 23.390625 48.390625 19.1875 42.75 
Q 14.984375 37.109375 14.984375 27.296875 
Q 14.984375 17.484375 19.15625 11.84375 
Q 23.34375 6.203125 30.609375 6.203125 
Q 37.796875 6.203125 41.984375 11.859375 
Q 46.1875 17.53125 46.1875 27.296875 
Q 46.1875 37.015625 41.984375 42.703125 
Q 37.796875 48.390625 30.609375 48.390625 
z
M 30.609375 56 
Q 42.328125 56 49.015625 48.375 
Q 55.71875 40.765625 55.71875 27.296875 
Q 55.71875 13.875 49.015625 6.21875 
Q 42.328125 -1.421875 30.609375 -1.421875 
Q 18.84375 -1.421875 12.171875 6.21875 
Q 5.515625 13.875 5.515625 27.296875 
Q 5.515625 40.765625 12.171875 48.375 
Q 18.84375 56 30.609375 56 
z
" id="DejaVuSans-111"/>
        <path d="M 54.890625 33.015625 
L 54.890625 0 
L 45.90625 0 
L 45.90625 32.71875 
Q 45.90625 40.484375 42.875 44.328125 
Q 39.84375 48.1875 33.796875 48.1875 
Q 26.515625 48.1875 22.3125 43.546875 
Q 18.109375 38.921875 18.109375 30.90625 
L 18.109375 0 
L 9.078125 0 
L 9.078125 54.6875 
L 18.109375 54.6875 
L 18.109375 46.1875 
Q 21.34375 51.125 25.703125 53.5625 
Q 30.078125 56 35.796875 56 
Q 45.21875 56 50.046875 50.171875 
Q 54.890625 44.34375 54.890625 33.015625 
z
" id="DejaVuSans-110"/>
        <path d="M 12.40625 8.296875 
L 28.515625 8.296875 
L 28.515625 63.921875 
L 10.984375 60.40625 
L 10.984375 69.390625 
L 28.421875 72.90625 
L 38.28125 72.90625 
L 38.28125 8.296875 
L 54.390625 8.296875 
L 54.390625 0 
L 12.40625 0 
z
" id="DejaVuSans-49"/>
        <path d="M 8.203125 72.90625 
L 55.078125 72.90625 
L 55.078125 68.703125 
L 28.609375 0 
L 18.3125 0 
L 43.21875 64.59375 
L 8.203125 64.59375 
z
" id="DejaVuSans-55"/>
       </defs>
       <use xlink:href="#DejaVuSans-99"/>
       <use x="54.980469" xlink:href="#DejaVuSans-97"/>
       <use x="116.259766" xlink:href="#DejaVuSans-109"/>
       <use x="213.671875" xlink:href="#DejaVuSans-101"/>
       <use x="275.195312" xlink:href="#DejaVuSans-108"/>
       <use x="302.978516" xlink:href="#DejaVuSans-121"/>
       <use x="362.158203" xlink:href="#DejaVuSans-111"/>
       <use x="423.339844" xlink:href="#DejaVuSans-110"/>
       <use x="486.71875" xlink:href="#DejaVuSans-49"/>
       <use x="550.341797" xlink:href="#DejaVuSans-55"/>
      </g>
     </g>
    </g>
    <g id="xtick_2">
     <g id="line2d_2">
      <g>
       <use style="stroke:#000000;stroke-width:0.8;" x="190.4561" xlink:href="#mb1c7b73626" y="246.2"/>
      </g>
     </g>
     <g id="text_2">
      <!-- covid -->
      <g transform="translate(177.12485 260.798437)scale(0.1 -0.1)">
       <defs>
        <path d="M 2.984375 54.6875 
L 12.5 54.6875 
L 29.59375 8.796875 
L 46.6875 54.6875 
L 56.203125 54.6875 
L 35.6875 0 
L 23.484375 0 
z
" id="DejaVuSans-118"/>
        <path d="M 9.421875 54.6875 
L 18.40625 54.6875 
L 18.40625 0 
L 9.421875 0 
z
M 9.421875 75.984375 
L 18.40625 75.984375 
L 18.40625 64.59375 
L 9.421875 64.59375 
z
" id="DejaVuSans-105"/>
        <path d="M 45.40625 46.390625 
L 45.40625 75.984375 
L 54.390625 75.984375 
L 54.390625 0 
L 45.40625 0 
L 45.40625 8.203125 
Q 42.578125 3.328125 38.25 0.953125 
Q 33.9375 -1.421875 27.875 -1.421875 
Q 17.96875 -1.421875 11.734375 6.484375 
Q 5.515625 14.40625 5.515625 27.296875 
Q 5.515625 40.1875 11.734375 48.09375 
Q 17.96875 56 27.875 56 
Q 33.9375 56 38.25 53.625 
Q 42.578125 51.265625 45.40625 46.390625 
z
M 14.796875 27.296875 
Q 14.796875 17.390625 18.875 11.75 
Q 22.953125 6.109375 30.078125 6.109375 
Q 37.203125 6.109375 41.296875 11.75 
Q 45.40625 17.390625 45.40625 27.296875 
Q 45.40625 37.203125 41.296875 42.84375 
Q 37.203125 48.484375 30.078125 48.484375 
Q 22.953125 48.484375 18.875 42.84375 
Q 14.796875 37.203125 14.796875 27.296875 
z
" id="DejaVuSans-100"/>
       </defs>
       <use xlink:href="#DejaVuSans-99"/>
       <use x="54.980469" xlink:href="#DejaVuSans-111"/>
       <use x="116.162109" xlink:href="#DejaVuSans-118"/>
       <use x="175.341797" xlink:href="#DejaVuSans-105"/>
       <use x="203.125" xlink:href="#DejaVuSans-100"/>
      </g>
     </g>
    </g>
    <g id="xtick_3">
     <g id="line2d_3">
      <g>
       <use style="stroke:#000000;stroke-width:0.8;" x="278.925" xlink:href="#mb1c7b73626" y="246.2"/>
      </g>
     </g>
     <g id="text_3">
      <!-- integers -->
      <g transform="translate(258.419531 260.798437)scale(0.1 -0.1)">
       <defs>
        <path d="M 18.3125 70.21875 
L 18.3125 54.6875 
L 36.8125 54.6875 
L 36.8125 47.703125 
L 18.3125 47.703125 
L 18.3125 18.015625 
Q 18.3125 11.328125 20.140625 9.421875 
Q 21.96875 7.515625 27.59375 7.515625 
L 36.8125 7.515625 
L 36.8125 0 
L 27.59375 0 
Q 17.1875 0 13.234375 3.875 
Q 9.28125 7.765625 9.28125 18.015625 
L 9.28125 47.703125 
L 2.6875 47.703125 
L 2.6875 54.6875 
L 9.28125 54.6875 
L 9.28125 70.21875 
z
" id="DejaVuSans-116"/>
        <path d="M 45.40625 27.984375 
Q 45.40625 37.75 41.375 43.109375 
Q 37.359375 48.484375 30.078125 48.484375 
Q 22.859375 48.484375 18.828125 43.109375 
Q 14.796875 37.75 14.796875 27.984375 
Q 14.796875 18.265625 18.828125 12.890625 
Q 22.859375 7.515625 30.078125 7.515625 
Q 37.359375 7.515625 41.375 12.890625 
Q 45.40625 18.265625 45.40625 27.984375 
z
M 54.390625 6.78125 
Q 54.390625 -7.171875 48.1875 -13.984375 
Q 42 -20.796875 29.203125 -20.796875 
Q 24.46875 -20.796875 20.265625 -20.09375 
Q 16.0625 -19.390625 12.109375 -17.921875 
L 12.109375 -9.1875 
Q 16.0625 -11.328125 19.921875 -12.34375 
Q 23.78125 -13.375 27.78125 -13.375 
Q 36.625 -13.375 41.015625 -8.765625 
Q 45.40625 -4.15625 45.40625 5.171875 
L 45.40625 9.625 
Q 42.625 4.78125 38.28125 2.390625 
Q 33.9375 0 27.875 0 
Q 17.828125 0 11.671875 7.65625 
Q 5.515625 15.328125 5.515625 27.984375 
Q 5.515625 40.671875 11.671875 48.328125 
Q 17.828125 56 27.875 56 
Q 33.9375 56 38.28125 53.609375 
Q 42.625 51.21875 45.40625 46.390625 
L 45.40625 54.6875 
L 54.390625 54.6875 
z
" id="DejaVuSans-103"/>
        <path d="M 41.109375 46.296875 
Q 39.59375 47.171875 37.8125 47.578125 
Q 36.03125 48 33.890625 48 
Q 26.265625 48 22.1875 43.046875 
Q 18.109375 38.09375 18.109375 28.8125 
L 18.109375 0 
L 9.078125 0 
L 9.078125 54.6875 
L 18.109375 54.6875 
L 18.109375 46.1875 
Q 20.953125 51.171875 25.484375 53.578125 
Q 30.03125 56 36.53125 56 
Q 37.453125 56 38.578125 55.875 
Q 39.703125 55.765625 41.0625 55.515625 
z
" id="DejaVuSans-114"/>
        <path d="M 44.28125 53.078125 
L 44.28125 44.578125 
Q 40.484375 46.53125 36.375 47.5 
Q 32.28125 48.484375 27.875 48.484375 
Q 21.1875 48.484375 17.84375 46.4375 
Q 14.5 44.390625 14.5 40.28125 
Q 14.5 37.15625 16.890625 35.375 
Q 19.28125 33.59375 26.515625 31.984375 
L 29.59375 31.296875 
Q 39.15625 29.25 43.1875 25.515625 
Q 47.21875 21.78125 47.21875 15.09375 
Q 47.21875 7.46875 41.1875 3.015625 
Q 35.15625 -1.421875 24.609375 -1.421875 
Q 20.21875 -1.421875 15.453125 -0.5625 
Q 10.6875 0.296875 5.421875 2 
L 5.421875 11.28125 
Q 10.40625 8.6875 15.234375 7.390625 
Q 20.0625 6.109375 24.8125 6.109375 
Q 31.15625 6.109375 34.5625 8.28125 
Q 37.984375 10.453125 37.984375 14.40625 
Q 37.984375 18.0625 35.515625 20.015625 
Q 33.0625 21.96875 24.703125 23.78125 
L 21.578125 24.515625 
Q 13.234375 26.265625 9.515625 29.90625 
Q 5.8125 33.546875 5.8125 39.890625 
Q 5.8125 47.609375 11.28125 51.796875 
Q 16.75 56 26.8125 56 
Q 31.78125 56 36.171875 55.265625 
Q 40.578125 54.546875 44.28125 53.078125 
z
" id="DejaVuSans-115"/>
       </defs>
       <use xlink:href="#DejaVuSans-105"/>
       <use x="27.783203" xlink:href="#DejaVuSans-110"/>
       <use x="91.162109" xlink:href="#DejaVuSans-116"/>
       <use x="130.371094" xlink:href="#DejaVuSans-101"/>
       <use x="191.894531" xlink:href="#DejaVuSans-103"/>
       <use x="255.371094" xlink:href="#DejaVuSans-101"/>
       <use x="316.894531" xlink:href="#DejaVuSans-114"/>
       <use x="358.007812" xlink:href="#DejaVuSans-115"/>
      </g>
     </g>
    </g>
    <g id="xtick_4">
     <g id="line2d_4">
      <g>
       <use style="stroke:#000000;stroke-width:0.8;" x="367.3939" xlink:href="#mb1c7b73626" y="246.2"/>
      </g>
     </g>
     <g id="text_4">
      <!-- pneumonia -->
      <g transform="translate(339.254056 260.798437)scale(0.1 -0.1)">
       <defs>
        <path d="M 18.109375 8.203125 
L 18.109375 -20.796875 
L 9.078125 -20.796875 
L 9.078125 54.6875 
L 18.109375 54.6875 
L 18.109375 46.390625 
Q 20.953125 51.265625 25.265625 53.625 
Q 29.59375 56 35.59375 56 
Q 45.5625 56 51.78125 48.09375 
Q 58.015625 40.1875 58.015625 27.296875 
Q 58.015625 14.40625 51.78125 6.484375 
Q 45.5625 -1.421875 35.59375 -1.421875 
Q 29.59375 -1.421875 25.265625 0.953125 
Q 20.953125 3.328125 18.109375 8.203125 
z
M 48.6875 27.296875 
Q 48.6875 37.203125 44.609375 42.84375 
Q 40.53125 48.484375 33.40625 48.484375 
Q 26.265625 48.484375 22.1875 42.84375 
Q 18.109375 37.203125 18.109375 27.296875 
Q 18.109375 17.390625 22.1875 11.75 
Q 26.265625 6.109375 33.40625 6.109375 
Q 40.53125 6.109375 44.609375 11.75 
Q 48.6875 17.390625 48.6875 27.296875 
z
" id="DejaVuSans-112"/>
        <path d="M 8.5 21.578125 
L 8.5 54.6875 
L 17.484375 54.6875 
L 17.484375 21.921875 
Q 17.484375 14.15625 20.5 10.265625 
Q 23.53125 6.390625 29.59375 6.390625 
Q 36.859375 6.390625 41.078125 11.03125 
Q 45.3125 15.671875 45.3125 23.6875 
L 45.3125 54.6875 
L 54.296875 54.6875 
L 54.296875 0 
L 45.3125 0 
L 45.3125 8.40625 
Q 42.046875 3.421875 37.71875 1 
Q 33.40625 -1.421875 27.6875 -1.421875 
Q 18.265625 -1.421875 13.375 4.4375 
Q 8.5 10.296875 8.5 21.578125 
z
M 31.109375 56 
z
" id="DejaVuSans-117"/>
       </defs>
       <use xlink:href="#DejaVuSans-112"/>
       <use x="63.476562" xlink:href="#DejaVuSans-110"/>
       <use x="126.855469" xlink:href="#DejaVuSans-101"/>
       <use x="188.378906" xlink:href="#DejaVuSans-117"/>
       <use x="251.757812" xlink:href="#DejaVuSans-109"/>
       <use x="349.169922" xlink:href="#DejaVuSans-111"/>
       <use x="410.351562" xlink:href="#DejaVuSans-110"/>
       <use x="473.730469" xlink:href="#DejaVuSans-105"/>
       <use x="501.513672" xlink:href="#DejaVuSans-97"/>
      </g>
     </g>
    </g>
    <g id="xtick_5">
     <g id="line2d_5">
      <g>
       <use style="stroke:#000000;stroke-width:0.8;" x="455.862799" xlink:href="#mb1c7b73626" y="246.2"/>
      </g>
     </g>
     <g id="text_5">
      <!-- ubuntu -->
      <g transform="translate(438.053424 260.798437)scale(0.1 -0.1)">
       <defs>
        <path d="M 48.6875 27.296875 
Q 48.6875 37.203125 44.609375 42.84375 
Q 40.53125 48.484375 33.40625 48.484375 
Q 26.265625 48.484375 22.1875 42.84375 
Q 18.109375 37.203125 18.109375 27.296875 
Q 18.109375 17.390625 22.1875 11.75 
Q 26.265625 6.109375 33.40625 6.109375 
Q 40.53125 6.109375 44.609375 11.75 
Q 48.6875 17.390625 48.6875 27.296875 
z
M 18.109375 46.390625 
Q 20.953125 51.265625 25.265625 53.625 
Q 29.59375 56 35.59375 56 
Q 45.5625 56 51.78125 48.09375 
Q 58.015625 40.1875 58.015625 27.296875 
Q 58.015625 14.40625 51.78125 6.484375 
Q 45.5625 -1.421875 35.59375 -1.421875 
Q 29.59375 -1.421875 25.265625 0.953125 
Q 20.953125 3.328125 18.109375 8.203125 
L 18.109375 0 
L 9.078125 0 
L 9.078125 75.984375 
L 18.109375 75.984375 
z
" id="DejaVuSans-98"/>
       </defs>
       <use xlink:href="#DejaVuSans-117"/>
       <use x="63.378906" xlink:href="#DejaVuSans-98"/>
       <use x="126.855469" xlink:href="#DejaVuSans-117"/>
       <use x="190.234375" xlink:href="#DejaVuSans-110"/>
       <use x="253.613281" xlink:href="#DejaVuSans-116"/>
       <use x="292.822266" xlink:href="#DejaVuSans-117"/>
      </g>
     </g>
    </g>
    <g id="text_6">
     <!-- Benchmark -->
     <g transform="translate(250.446094 274.476562)scale(0.1 -0.1)">
      <defs>
       <path d="M 19.671875 34.8125 
L 19.671875 8.109375 
L 35.5 8.109375 
Q 43.453125 8.109375 47.28125 11.40625 
Q 51.125 14.703125 51.125 21.484375 
Q 51.125 28.328125 47.28125 31.5625 
Q 43.453125 34.8125 35.5 34.8125 
z
M 19.671875 64.796875 
L 19.671875 42.828125 
L 34.28125 42.828125 
Q 41.5 42.828125 45.03125 45.53125 
Q 48.578125 48.25 48.578125 53.8125 
Q 48.578125 59.328125 45.03125 62.0625 
Q 41.5 64.796875 34.28125 64.796875 
z
M 9.8125 72.90625 
L 35.015625 72.90625 
Q 46.296875 72.90625 52.390625 68.21875 
Q 58.5 63.53125 58.5 54.890625 
Q 58.5 48.1875 55.375 44.234375 
Q 52.25 40.28125 46.1875 39.3125 
Q 53.46875 37.75 57.5 32.78125 
Q 61.53125 27.828125 61.53125 20.40625 
Q 61.53125 10.640625 54.890625 5.3125 
Q 48.25 0 35.984375 0 
L 9.8125 0 
z
" id="DejaVuSans-66"/>
       <path d="M 54.890625 33.015625 
L 54.890625 0 
L 45.90625 0 
L 45.90625 32.71875 
Q 45.90625 40.484375 42.875 44.328125 
Q 39.84375 48.1875 33.796875 48.1875 
Q 26.515625 48.1875 22.3125 43.546875 
Q 18.109375 38.921875 18.109375 30.90625 
L 18.109375 0 
L 9.078125 0 
L 9.078125 75.984375 
L 18.109375 75.984375 
L 18.109375 46.1875 
Q 21.34375 51.125 25.703125 53.5625 
Q 30.078125 56 35.796875 56 
Q 45.21875 56 50.046875 50.171875 
Q 54.890625 44.34375 54.890625 33.015625 
z
" id="DejaVuSans-104"/>
       <path d="M 9.078125 75.984375 
L 18.109375 75.984375 
L 18.109375 31.109375 
L 44.921875 54.6875 
L 56.390625 54.6875 
L 27.390625 29.109375 
L 57.625 0 
L 45.90625 0 
L 18.109375 26.703125 
L 18.109375 0 
L 9.078125 0 
z
" id="DejaVuSans-107"/>
      </defs>
      <use xlink:href="#DejaVuSans-66"/>
      <use x="68.603516" xlink:href="#DejaVuSans-101"/>
      <use x="130.126953" xlink:href="#DejaVuSans-110"/>
      <use x="193.505859" xlink:href="#DejaVuSans-99"/>
      <use x="248.486328" xlink:href="#DejaVuSans-104"/>
      <use x="311.865234" xlink:href="#DejaVuSans-109"/>
      <use x="409.277344" xlink:href="#DejaVuSans-97"/>
      <use x="470.556641" xlink:href="#DejaVuSans-114"/>
      <use x="511.669922" xlink:href="#DejaVuSans-107"/>
     </g>
    </g>
   </g>
   <g id="matplotlib.axis_2">
    <g id="ytick_1">
     <g id="line2d_6">
      <defs>
       <path d="M 0 0 
L -3.5 0 
" id="mced4f235b2" style="stroke:#000000;stroke-width:0.8;"/>
      </defs>
      <g>
       <use style="stroke:#000000;stroke-width:0.8;" x="47.8" xlink:href="#mced4f235b2" y="246.2"/>
      </g>
     </g>
     <g id="text_7">
      <!-- 0.0 -->
      <g transform="translate(24.896875 249.999219)scale(0.1 -0.1)">
       <defs>
        <path d="M 31.78125 66.40625 
Q 24.171875 66.40625 20.328125 58.90625 
Q 16.5 51.421875 16.5 36.375 
Q 16.5 21.390625 20.328125 13.890625 
Q 24.171875 6.390625 31.78125 6.390625 
Q 39.453125 6.390625 43.28125 13.890625 
Q 47.125 21.390625 47.125 36.375 
Q 47.125 51.421875 43.28125 58.90625 
Q 39.453125 66.40625 31.78125 66.40625 
z
M 31.78125 74.21875 
Q 44.046875 74.21875 50.515625 64.515625 
Q 56.984375 54.828125 56.984375 36.375 
Q 56.984375 17.96875 50.515625 8.265625 
Q 44.046875 -1.421875 31.78125 -1.421875 
Q 19.53125 -1.421875 13.0625 8.265625 
Q 6.59375 17.96875 6.59375 36.375 
Q 6.59375 54.828125 13.0625 64.515625 
Q 19.53125 74.21875 31.78125 74.21875 
z
" id="DejaVuSans-48"/>
        <path d="M 10.6875 12.40625 
L 21 12.40625 
L 21 0 
L 10.6875 0 
z
" id="DejaVuSans-46"/>
       </defs>
       <use xlink:href="#DejaVuSans-48"/>
       <use x="63.623047" xlink:href="#DejaVuSans-46"/>
       <use x="95.410156" xlink:href="#DejaVuSans-48"/>
      </g>
     </g>
    </g>
    <g id="ytick_2">
     <g id="line2d_7">
      <g>
       <use style="stroke:#000000;stroke-width:0.8;" x="47.8" xlink:href="#mced4f235b2" y="204.79438"/>
      </g>
     </g>
     <g id="text_8">
      <!-- 0.2 -->
      <g transform="translate(24.896875 208.593599)scale(0.1 -0.1)">
       <defs>
        <path d="M 19.1875 8.296875 
L 53.609375 8.296875 
L 53.609375 0 
L 7.328125 0 
L 7.328125 8.296875 
Q 12.9375 14.109375 22.625 23.890625 
Q 32.328125 33.6875 34.8125 36.53125 
Q 39.546875 41.84375 41.421875 45.53125 
Q 43.3125 49.21875 43.3125 52.78125 
Q 43.3125 58.59375 39.234375 62.25 
Q 35.15625 65.921875 28.609375 65.921875 
Q 23.96875 65.921875 18.8125 64.3125 
Q 13.671875 62.703125 7.8125 59.421875 
L 7.8125 69.390625 
Q 13.765625 71.78125 18.9375 73 
Q 24.125 74.21875 28.421875 74.21875 
Q 39.75 74.21875 46.484375 68.546875 
Q 53.21875 62.890625 53.21875 53.421875 
Q 53.21875 48.921875 51.53125 44.890625 
Q 49.859375 40.875 45.40625 35.40625 
Q 44.1875 33.984375 37.640625 27.21875 
Q 31.109375 20.453125 19.1875 8.296875 
z
" id="DejaVuSans-50"/>
       </defs>
       <use xlink:href="#DejaVuSans-48"/>
       <use x="63.623047" xlink:href="#DejaVuSans-46"/>
       <use x="95.410156" xlink:href="#DejaVuSans-50"/>
      </g>
     </g>
    </g>
    <g id="ytick_3">
     <g id="line2d_8">
      <g>
       <use style="stroke:#000000;stroke-width:0.8;" x="47.8" xlink:href="#mced4f235b2" y="163.388761"/>
      </g>
     </g>
     <g id="text_9">
      <!-- 0.4 -->
      <g transform="translate(24.896875 167.187979)scale(0.1 -0.1)">
       <defs>
        <path d="M 37.796875 64.3125 
L 12.890625 25.390625 
L 37.796875 25.390625 
z
M 35.203125 72.90625 
L 47.609375 72.90625 
L 47.609375 25.390625 
L 58.015625 25.390625 
L 58.015625 17.1875 
L 47.609375 17.1875 
L 47.609375 0 
L 37.796875 0 
L 37.796875 17.1875 
L 4.890625 17.1875 
L 4.890625 26.703125 
z
" id="DejaVuSans-52"/>
       </defs>
       <use xlink:href="#DejaVuSans-48"/>
       <use x="63.623047" xlink:href="#DejaVuSans-46"/>
       <use x="95.410156" xlink:href="#DejaVuSans-52"/>
      </g>
     </g>
    </g>
    <g id="ytick_4">
     <g id="line2d_9">
      <g>
       <use style="stroke:#000000;stroke-width:0.8;" x="47.8" xlink:href="#mced4f235b2" y="121.983141"/>
      </g>
     </g>
     <g id="text_10">
      <!-- 0.6 -->
      <g transform="translate(24.896875 125.78236)scale(0.1 -0.1)">
       <defs>
        <path d="M 33.015625 40.375 
Q 26.375 40.375 22.484375 35.828125 
Q 18.609375 31.296875 18.609375 23.390625 
Q 18.609375 15.53125 22.484375 10.953125 
Q 26.375 6.390625 33.015625 6.390625 
Q 39.65625 6.390625 43.53125 10.953125 
Q 47.40625 15.53125 47.40625 23.390625 
Q 47.40625 31.296875 43.53125 35.828125 
Q 39.65625 40.375 33.015625 40.375 
z
M 52.59375 71.296875 
L 52.59375 62.3125 
Q 48.875 64.0625 45.09375 64.984375 
Q 41.3125 65.921875 37.59375 65.921875 
Q 27.828125 65.921875 22.671875 59.328125 
Q 17.53125 52.734375 16.796875 39.40625 
Q 19.671875 43.65625 24.015625 45.921875 
Q 28.375 48.1875 33.59375 48.1875 
Q 44.578125 48.1875 50.953125 41.515625 
Q 57.328125 34.859375 57.328125 23.390625 
Q 57.328125 12.15625 50.6875 5.359375 
Q 44.046875 -1.421875 33.015625 -1.421875 
Q 20.359375 -1.421875 13.671875 8.265625 
Q 6.984375 17.96875 6.984375 36.375 
Q 6.984375 53.65625 15.1875 63.9375 
Q 23.390625 74.21875 37.203125 74.21875 
Q 40.921875 74.21875 44.703125 73.484375 
Q 48.484375 72.75 52.59375 71.296875 
z
" id="DejaVuSans-54"/>
       </defs>
       <use xlink:href="#DejaVuSans-48"/>
       <use x="63.623047" xlink:href="#DejaVuSans-46"/>
       <use x="95.410156" xlink:href="#DejaVuSans-54"/>
      </g>
     </g>
    </g>
    <g id="ytick_5">
     <g id="line2d_10">
      <g>
       <use style="stroke:#000000;stroke-width:0.8;" x="47.8" xlink:href="#mced4f235b2" y="80.577521"/>
      </g>
     </g>
     <g id="text_11">
      <!-- 0.8 -->
      <g transform="translate(24.896875 84.37674)scale(0.1 -0.1)">
       <defs>
        <path d="M 31.78125 34.625 
Q 24.75 34.625 20.71875 30.859375 
Q 16.703125 27.09375 16.703125 20.515625 
Q 16.703125 13.921875 20.71875 10.15625 
Q 24.75 6.390625 31.78125 6.390625 
Q 38.8125 6.390625 42.859375 10.171875 
Q 46.921875 13.96875 46.921875 20.515625 
Q 46.921875 27.09375 42.890625 30.859375 
Q 38.875 34.625 31.78125 34.625 
z
M 21.921875 38.8125 
Q 15.578125 40.375 12.03125 44.71875 
Q 8.5 49.078125 8.5 55.328125 
Q 8.5 64.0625 14.71875 69.140625 
Q 20.953125 74.21875 31.78125 74.21875 
Q 42.671875 74.21875 48.875 69.140625 
Q 55.078125 64.0625 55.078125 55.328125 
Q 55.078125 49.078125 51.53125 44.71875 
Q 48 40.375 41.703125 38.8125 
Q 48.828125 37.15625 52.796875 32.3125 
Q 56.78125 27.484375 56.78125 20.515625 
Q 56.78125 9.90625 50.3125 4.234375 
Q 43.84375 -1.421875 31.78125 -1.421875 
Q 19.734375 -1.421875 13.25 4.234375 
Q 6.78125 9.90625 6.78125 20.515625 
Q 6.78125 27.484375 10.78125 32.3125 
Q 14.796875 37.15625 21.921875 38.8125 
z
M 18.3125 54.390625 
Q 18.3125 48.734375 21.84375 45.5625 
Q 25.390625 42.390625 31.78125 42.390625 
Q 38.140625 42.390625 41.71875 45.5625 
Q 45.3125 48.734375 45.3125 54.390625 
Q 45.3125 60.0625 41.71875 63.234375 
Q 38.140625 66.40625 31.78125 66.40625 
Q 25.390625 66.40625 21.84375 63.234375 
Q 18.3125 60.0625 18.3125 54.390625 
z
" id="DejaVuSans-56"/>
       </defs>
       <use xlink:href="#DejaVuSans-48"/>
       <use x="63.623047" xlink:href="#DejaVuSans-46"/>
       <use x="95.410156" xlink:href="#DejaVuSans-56"/>
      </g>
     </g>
    </g>
    <g id="ytick_6">
     <g id="line2d_11">
      <g>
       <use style="stroke:#000000;stroke-width:0.8;" x="47.8" xlink:href="#mced4f235b2" y="39.171902"/>
      </g>
     </g>
     <g id="text_12">
      <!-- 1.0 -->
      <g transform="translate(24.896875 42.97112)scale(0.1 -0.1)">
       <use xlink:href="#DejaVuSans-49"/>
       <use x="63.623047" xlink:href="#DejaVuSans-46"/>
       <use x="95.410156" xlink:href="#DejaVuSans-48"/>
      </g>
     </g>
    </g>
    <g id="text_13">
     <!-- Relative parsing speed -->
     <g transform="translate(18.817187 185.578906)rotate(-90)scale(0.1 -0.1)">
      <defs>
       <path d="M 44.390625 34.1875 
Q 47.5625 33.109375 50.5625 29.59375 
Q 53.5625 26.078125 56.59375 19.921875 
L 66.609375 0 
L 56 0 
L 46.6875 18.703125 
Q 43.0625 26.03125 39.671875 28.421875 
Q 36.28125 30.8125 30.421875 30.8125 
L 19.671875 30.8125 
L 19.671875 0 
L 9.8125 0 
L 9.8125 72.90625 
L 32.078125 72.90625 
Q 44.578125 72.90625 50.734375 67.671875 
Q 56.890625 62.453125 56.890625 51.90625 
Q 56.890625 45.015625 53.6875 40.46875 
Q 50.484375 35.9375 44.390625 34.1875 
z
M 19.671875 64.796875 
L 19.671875 38.921875 
L 32.078125 38.921875 
Q 39.203125 38.921875 42.84375 42.21875 
Q 46.484375 45.515625 46.484375 51.90625 
Q 46.484375 58.296875 42.84375 61.546875 
Q 39.203125 64.796875 32.078125 64.796875 
z
" id="DejaVuSans-82"/>
       <path id="DejaVuSans-32"/>
      </defs>
      <use xlink:href="#DejaVuSans-82"/>
      <use x="64.982422" xlink:href="#DejaVuSans-101"/>
      <use x="126.505859" xlink:href="#DejaVuSans-108"/>
      <use x="154.289062" xlink:href="#DejaVuSans-97"/>
      <use x="215.568359" xlink:href="#DejaVuSans-116"/>
      <use x="254.777344" xlink:href="#DejaVuSans-105"/>
      <use x="282.560547" xlink:href="#DejaVuSans-118"/>
      <use x="341.740234" xlink:href="#DejaVuSans-101"/>
      <use x="403.263672" xlink:href="#DejaVuSans-32"/>
      <use x="435.050781" xlink:href="#DejaVuSans-112"/>
      <use x="498.527344" xlink:href="#DejaVuSans-97"/>
      <use x="559.806641" xlink:href="#DejaVuSans-114"/>
      <use x="600.919922" xlink:href="#DejaVuSans-115"/>
      <use x="653.019531" xlink:href="#DejaVuSans-105"/>
      <use x="680.802734" xlink:href="#DejaVuSans-110"/>
      <use x="744.181641" xlink:href="#DejaVuSans-103"/>
      <use x="807.658203" xlink:href="#DejaVuSans-32"/>
      <use x="839.445312" xlink:href="#DejaVuSans-115"/>
      <use x="891.544922" xlink:href="#DejaVuSans-112"/>
      <use x="955.021484" xlink:href="#DejaVuSans-101"/>
      <use x="1016.544922" xlink:href="#DejaVuSans-101"/>
      <use x="1078.068359" xlink:href="#DejaVuSans-100"/>
     </g>
    </g>
   </g>
   <g id="LineCollection_1">
    <path clip-path="url(#pc9714c8b0c)" d="M 72.497568 203.771538 
L 72.497568 183.562511 
" style="fill:none;stroke:#000000;stroke-width:1.5;"/>
    <path clip-path="url(#pc9714c8b0c)" d="M 160.966467 223.564251 
L 160.966467 209.168153 
" style="fill:none;stroke:#000000;stroke-width:1.5;"/>
    <path clip-path="url(#pc9714c8b0c)" d="M 249.435367 221.859031 
L 249.435367 218.941853 
" style="fill:none;stroke:#000000;stroke-width:1.5;"/>
    <path clip-path="url(#pc9714c8b0c)" d="M 337.904266 201.876498 
L 337.904266 194.056645 
" style="fill:none;stroke:#000000;stroke-width:1.5;"/>
    <path clip-path="url(#pc9714c8b0c)" d="M 426.373166 182.057786 
L 426.373166 175.860864 
" style="fill:none;stroke:#000000;stroke-width:1.5;"/>
   </g>
   <g id="LineCollection_2">
    <path clip-path="url(#pc9714c8b0c)" d="M 79.869976 65.239578 
L 79.869976 52.410453 
" style="fill:none;stroke:#000000;stroke-width:1.5;"/>
    <path clip-path="url(#pc9714c8b0c)" d="M 168.338876 90.565655 
L 168.338876 84.95247 
" style="fill:none;stroke:#000000;stroke-width:1.5;"/>
    <path clip-path="url(#pc9714c8b0c)" d="M 256.807775 45.255118 
L 256.807775 36.418325 
" style="fill:none;stroke:#000000;stroke-width:1.5;"/>
    <path clip-path="url(#pc9714c8b0c)" d="M 345.276675 60.412513 
L 345.276675 52.843553 
" style="fill:none;stroke:#000000;stroke-width:1.5;"/>
    <path clip-path="url(#pc9714c8b0c)" d="M 433.745574 76.75095 
L 433.745574 47.999032 
" style="fill:none;stroke:#000000;stroke-width:1.5;"/>
   </g>
   <g id="LineCollection_3">
    <path clip-path="url(#pc9714c8b0c)" d="M 87.242384 45.569833 
L 87.242384 32.77397 
" style="fill:none;stroke:#000000;stroke-width:1.5;"/>
    <path clip-path="url(#pc9714c8b0c)" d="M 175.711284 47.055665 
L 175.711284 39.998623 
" style="fill:none;stroke:#000000;stroke-width:1.5;"/>
    <path clip-path="url(#pc9714c8b0c)" d="M 264.180183 52.975847 
L 264.180183 44.671089 
" style="fill:none;stroke:#000000;stroke-width:1.5;"/>
    <path clip-path="url(#pc9714c8b0c)" d="M 352.649083 46.294168 
L 352.649083 39.428315 
" style="fill:none;stroke:#000000;stroke-width:1.5;"/>
    <path clip-path="url(#pc9714c8b0c)" d="M 441.117982 60.786026 
L 441.117982 34.652933 
" style="fill:none;stroke:#000000;stroke-width:1.5;"/>
   </g>
   <g id="LineCollection_4">
    <path clip-path="url(#pc9714c8b0c)" d="M 94.614793 64.691685 
L 94.614793 27.866101 
" style="fill:none;stroke:#000000;stroke-width:1.5;"/>
    <path clip-path="url(#pc9714c8b0c)" d="M 183.083692 45.840176 
L 183.083692 32.503627 
" style="fill:none;stroke:#000000;stroke-width:1.5;"/>
    <path clip-path="url(#pc9714c8b0c)" d="M 271.552592 44.332364 
L 271.552592 34.011439 
" style="fill:none;stroke:#000000;stroke-width:1.5;"/>
    <path clip-path="url(#pc9714c8b0c)" d="M 360.021491 43.213919 
L 360.021491 35.129884 
" style="fill:none;stroke:#000000;stroke-width:1.5;"/>
    <path clip-path="url(#pc9714c8b0c)" d="M 448.490391 56.334279 
L 448.490391 22.009524 
" style="fill:none;stroke:#000000;stroke-width:1.5;"/>
   </g>
   <g id="LineCollection_5">
    <path clip-path="url(#pc9714c8b0c)" d="M 101.987201 246.2 
L 101.987201 246.2 
" style="fill:none;stroke:#000000;stroke-width:1.5;"/>
    <path clip-path="url(#pc9714c8b0c)" d="M 190.4561 239.097674 
L 190.4561 238.390666 
" style="fill:none;stroke:#000000;stroke-width:1.5;"/>
    <path clip-path="url(#pc9714c8b0c)" d="M 278.925 246.2 
L 278.925 246.2 
" style="fill:none;stroke:#000000;stroke-width:1.5;"/>
    <path clip-path="url(#pc9714c8b0c)" d="M 367.3939 246.050067 
L 367.3939 246.041245 
" style="fill:none;stroke:#000000;stroke-width:1.5;"/>
    <path clip-path="url(#pc9714c8b0c)" d="M 455.862799 241.766099 
L 455.862799 240.805155 
" style="fill:none;stroke:#000000;stroke-width:1.5;"/>
   </g>
   <g id="LineCollection_6">
    <path clip-path="url(#pc9714c8b0c)" d="M 109.359609 231.05424 
L 109.359609 230.386887 
" style="fill:none;stroke:#000000;stroke-width:1.5;"/>
    <path clip-path="url(#pc9714c8b0c)" d="M 197.828509 172.491434 
L 197.828509 162.439818 
" style="fill:none;stroke:#000000;stroke-width:1.5;"/>
    <path clip-path="url(#pc9714c8b0c)" d="M 286.297408 172.634927 
L 286.297408 156.939045 
" style="fill:none;stroke:#000000;stroke-width:1.5;"/>
    <path clip-path="url(#pc9714c8b0c)" d="M 374.766308 184.444159 
L 374.766308 160.270607 
" style="fill:none;stroke:#000000;stroke-width:1.5;"/>
    <path clip-path="url(#pc9714c8b0c)" d="M 463.235207 217.621212 
L 463.235207 214.312939 
" style="fill:none;stroke:#000000;stroke-width:1.5;"/>
   </g>
   <g id="LineCollection_7">
    <path clip-path="url(#pc9714c8b0c)" d="M 116.732018 235.568072 
L 116.732018 225.450345 
" style="fill:none;stroke:#000000;stroke-width:1.5;"/>
    <path clip-path="url(#pc9714c8b0c)" d="M 205.200917 232.891392 
L 205.200917 227.686063 
" style="fill:none;stroke:#000000;stroke-width:1.5;"/>
    <path clip-path="url(#pc9714c8b0c)" d="M 293.669817 157.32286 
L 293.669817 147.907174 
" style="fill:none;stroke:#000000;stroke-width:1.5;"/>
    <path clip-path="url(#pc9714c8b0c)" d="M 382.138716 222.413811 
L 382.138716 220.930123 
" style="fill:none;stroke:#000000;stroke-width:1.5;"/>
    <path clip-path="url(#pc9714c8b0c)" d="M 470.607616 241.141595 
L 470.607616 236.238691 
" style="fill:none;stroke:#000000;stroke-width:1.5;"/>
   </g>
   <g id="LineCollection_8">
    <path clip-path="url(#pc9714c8b0c)" d="M 124.104426 244.886749 
L 124.104426 244.826279 
" style="fill:none;stroke:#000000;stroke-width:1.5;"/>
    <path clip-path="url(#pc9714c8b0c)" d="M 212.573325 245.624364 
L 212.573325 245.57431 
" style="fill:none;stroke:#000000;stroke-width:1.5;"/>
    <path clip-path="url(#pc9714c8b0c)" d="M 301.042225 246.147796 
L 301.042225 246.132963 
" style="fill:none;stroke:#000000;stroke-width:1.5;"/>
    <path clip-path="url(#pc9714c8b0c)" d="M 389.511124 245.32928 
L 389.511124 245.194368 
" style="fill:none;stroke:#000000;stroke-width:1.5;"/>
    <path clip-path="url(#pc9714c8b0c)" d="M 477.980024 245.046304 
L 477.980024 244.766671 
" style="fill:none;stroke:#000000;stroke-width:1.5;"/>
   </g>
   <g id="LineCollection_9">
    <path clip-path="url(#pc9714c8b0c)" d="M 131.476834 239.969198 
L 131.476834 239.196618 
" style="fill:none;stroke:#000000;stroke-width:1.5;"/>
    <path clip-path="url(#pc9714c8b0c)" d="M 219.945734 235.920997 
L 219.945734 235.255916 
" style="fill:none;stroke:#000000;stroke-width:1.5;"/>
    <path clip-path="url(#pc9714c8b0c)" d="M 308.414633 229.863996 
L 308.414633 228.8626 
" style="fill:none;stroke:#000000;stroke-width:1.5;"/>
    <path clip-path="url(#pc9714c8b0c)" d="M 396.883533 235.211785 
L 396.883533 234.432047 
" style="fill:none;stroke:#000000;stroke-width:1.5;"/>
    <path clip-path="url(#pc9714c8b0c)" d="M 485.352432 241.734091 
L 485.352432 240.715791 
" style="fill:none;stroke:#000000;stroke-width:1.5;"/>
   </g>
   <g id="patch_48">
    <path d="M 47.8 246.2 
L 47.8 10.8 
" style="fill:none;stroke:#000000;stroke-linecap:square;stroke-linejoin:miter;stroke-width:0.8;"/>
   </g>
   <g id="patch_49">
    <path d="M 510.05 246.2 
L 510.05 10.8 
" style="fill:none;stroke:#000000;stroke-linecap:square;stroke-linejoin:miter;stroke-width:0.8;"/>
   </g>
   <g id="patch_50">
    <path d="M 47.8 246.2 
L 510.05 246.2 
" style="fill:none;stroke:#000000;stroke-linecap:square;stroke-linejoin:miter;stroke-width:0.8;"/>
   </g>
   <g id="patch_51">
    <path d="M 47.8 10.8 
L 510.05 10.8 
" style="fill:none;stroke:#000000;stroke-linecap:square;stroke-linejoin:miter;stroke-width:0.8;"/>
   </g>
   <g id="legend_1">
    <g id="patch_52">
     <path d="M 540.1625 150.903125 
L 703.245312 150.903125 
Q 705.245312 150.903125 705.245312 148.903125 
L 705.245312 17.8 
Q 705.245312 15.8 703.245312 15.8 
L 540.1625 15.8 
Q 538.1625 15.8 538.1625 17.8 
L 538.1625 148.903125 
Q 538.1625 150.903125 540.1625 150.903125 
z
" style="fill:#ffffff;opacity:0.8;stroke:#cccccc;stroke-linejoin:miter;"/>
    </g>
    <g id="patch_53">
     <path d="M 542.1625 27.398438 
L 562.1625 27.398438 
L 562.1625 20.398438 
L 542.1625 20.398438 
z
" style="fill:#1f77b4;"/>
    </g>
    <g id="text_14">
     <!-- Aetf/QBencode -->
     <g transform="translate(570.1625 27.398438)scale(0.1 -0.1)">
      <defs>
       <path d="M 34.1875 63.1875 
L 20.796875 26.90625 
L 47.609375 26.90625 
z
M 28.609375 72.90625 
L 39.796875 72.90625 
L 67.578125 0 
L 57.328125 0 
L 50.6875 18.703125 
L 17.828125 18.703125 
L 11.1875 0 
L 0.78125 0 
z
" id="DejaVuSans-65"/>
       <path d="M 37.109375 75.984375 
L 37.109375 68.5 
L 28.515625 68.5 
Q 23.6875 68.5 21.796875 66.546875 
Q 19.921875 64.59375 19.921875 59.515625 
L 19.921875 54.6875 
L 34.71875 54.6875 
L 34.71875 47.703125 
L 19.921875 47.703125 
L 19.921875 0 
L 10.890625 0 
L 10.890625 47.703125 
L 2.296875 47.703125 
L 2.296875 54.6875 
L 10.890625 54.6875 
L 10.890625 58.5 
Q 10.890625 67.625 15.140625 71.796875 
Q 19.390625 75.984375 28.609375 75.984375 
z
" id="DejaVuSans-102"/>
       <path d="M 25.390625 72.90625 
L 33.6875 72.90625 
L 8.296875 -9.28125 
L 0 -9.28125 
z
" id="DejaVuSans-47"/>
       <path d="M 39.40625 66.21875 
Q 28.65625 66.21875 22.328125 58.203125 
Q 16.015625 50.203125 16.015625 36.375 
Q 16.015625 22.609375 22.328125 14.59375 
Q 28.65625 6.59375 39.40625 6.59375 
Q 50.140625 6.59375 56.421875 14.59375 
Q 62.703125 22.609375 62.703125 36.375 
Q 62.703125 50.203125 56.421875 58.203125 
Q 50.140625 66.21875 39.40625 66.21875 
z
M 53.21875 1.3125 
L 66.21875 -12.890625 
L 54.296875 -12.890625 
L 43.5 -1.21875 
Q 41.890625 -1.3125 41.03125 -1.359375 
Q 40.1875 -1.421875 39.40625 -1.421875 
Q 24.03125 -1.421875 14.8125 8.859375 
Q 5.609375 19.140625 5.609375 36.375 
Q 5.609375 53.65625 14.8125 63.9375 
Q 24.03125 74.21875 39.40625 74.21875 
Q 54.734375 74.21875 63.90625 63.9375 
Q 73.09375 53.65625 73.09375 36.375 
Q 73.09375 23.6875 67.984375 14.640625 
Q 62.890625 5.609375 53.21875 1.3125 
z
" id="DejaVuSans-81"/>
      </defs>
      <use xlink:href="#DejaVuSans-65"/>
      <use x="66.658203" xlink:href="#DejaVuSans-101"/>
      <use x="128.181641" xlink:href="#DejaVuSans-116"/>
      <use x="167.390625" xlink:href="#DejaVuSans-102"/>
      <use x="202.595703" xlink:href="#DejaVuSans-47"/>
      <use x="236.287109" xlink:href="#DejaVuSans-81"/>
      <use x="314.998047" xlink:href="#DejaVuSans-66"/>
      <use x="383.601562" xlink:href="#DejaVuSans-101"/>
      <use x="445.125" xlink:href="#DejaVuSans-110"/>
      <use x="508.503906" xlink:href="#DejaVuSans-99"/>
      <use x="563.484375" xlink:href="#DejaVuSans-111"/>
      <use x="624.666016" xlink:href="#DejaVuSans-100"/>
      <use x="688.142578" xlink:href="#DejaVuSans-101"/>
     </g>
    </g>
    <g id="patch_54">
     <path d="M 542.1625 42.076563 
L 562.1625 42.076563 
L 562.1625 35.076563 
L 542.1625 35.076563 
z
" style="fill:#ff7f0e;"/>
    </g>
    <g id="text_15">
     <!-- fbdtemme/bencode -->
     <g transform="translate(570.1625 42.076563)scale(0.1 -0.1)">
      <use xlink:href="#DejaVuSans-102"/>
      <use x="35.205078" xlink:href="#DejaVuSans-98"/>
      <use x="98.681641" xlink:href="#DejaVuSans-100"/>
      <use x="162.158203" xlink:href="#DejaVuSans-116"/>
      <use x="201.367188" xlink:href="#DejaVuSans-101"/>
      <use x="262.890625" xlink:href="#DejaVuSans-109"/>
      <use x="360.302734" xlink:href="#DejaVuSans-109"/>
      <use x="457.714844" xlink:href="#DejaVuSans-101"/>
      <use x="519.238281" xlink:href="#DejaVuSans-47"/>
      <use x="552.929688" xlink:href="#DejaVuSans-98"/>
      <use x="616.40625" xlink:href="#DejaVuSans-101"/>
      <use x="677.929688" xlink:href="#DejaVuSans-110"/>
      <use x="741.308594" xlink:href="#DejaVuSans-99"/>
      <use x="796.289062" xlink:href="#DejaVuSans-111"/>
      <use x="857.470703" xlink:href="#DejaVuSans-100"/>
      <use x="920.947266" xlink:href="#DejaVuSans-101"/>
     </g>
    </g>
    <g id="patch_55">
     <path d="M 542.1625 56.754687 
L 562.1625 56.754687 
L 562.1625 49.754687 
L 542.1625 49.754687 
z
" style="fill:#2ca02c;"/>
    </g>
    <g id="text_16">
     <!-- jimporter/bencode -->
     <g transform="translate(570.1625 56.754687)scale(0.1 -0.1)">
      <defs>
       <path d="M 9.421875 54.6875 
L 18.40625 54.6875 
L 18.40625 -0.984375 
Q 18.40625 -11.421875 14.421875 -16.109375 
Q 10.453125 -20.796875 1.609375 -20.796875 
L -1.8125 -20.796875 
L -1.8125 -13.1875 
L 0.59375 -13.1875 
Q 5.71875 -13.1875 7.5625 -10.8125 
Q 9.421875 -8.453125 9.421875 -0.984375 
z
M 9.421875 75.984375 
L 18.40625 75.984375 
L 18.40625 64.59375 
L 9.421875 64.59375 
z
" id="DejaVuSans-106"/>
      </defs>
      <use xlink:href="#DejaVuSans-106"/>
      <use x="27.783203" xlink:href="#DejaVuSans-105"/>
      <use x="55.566406" xlink:href="#DejaVuSans-109"/>
      <use x="152.978516" xlink:href="#DejaVuSans-112"/>
      <use x="216.455078" xlink:href="#DejaVuSans-111"/>
      <use x="277.636719" xlink:href="#DejaVuSans-114"/>
      <use x="318.75" xlink:href="#DejaVuSans-116"/>
      <use x="357.958984" xlink:href="#DejaVuSans-101"/>
      <use x="419.482422" xlink:href="#DejaVuSans-114"/>
      <use x="460.595703" xlink:href="#DejaVuSans-47"/>
      <use x="494.287109" xlink:href="#DejaVuSans-98"/>
      <use x="557.763672" xlink:href="#DejaVuSans-101"/>
      <use x="619.287109" xlink:href="#DejaVuSans-110"/>
      <use x="682.666016" xlink:href="#DejaVuSans-99"/>
      <use x="737.646484" xlink:href="#DejaVuSans-111"/>
      <use x="798.828125" xlink:href="#DejaVuSans-100"/>
      <use x="862.304688" xlink:href="#DejaVuSans-101"/>
     </g>
    </g>
    <g id="patch_56">
     <path d="M 542.1625 71.432813 
L 562.1625 71.432813 
L 562.1625 64.432813 
L 542.1625 64.432813 
z
" style="fill:#d62728;"/>
    </g>
    <g id="text_17">
     <!-- jimporter/bencode (boost) -->
     <g transform="translate(570.1625 71.432813)scale(0.1 -0.1)">
      <defs>
       <path d="M 31 75.875 
Q 24.46875 64.65625 21.28125 53.65625 
Q 18.109375 42.671875 18.109375 31.390625 
Q 18.109375 20.125 21.3125 9.0625 
Q 24.515625 -2 31 -13.1875 
L 23.1875 -13.1875 
Q 15.875 -1.703125 12.234375 9.375 
Q 8.59375 20.453125 8.59375 31.390625 
Q 8.59375 42.28125 12.203125 53.3125 
Q 15.828125 64.359375 23.1875 75.875 
z
" id="DejaVuSans-40"/>
       <path d="M 8.015625 75.875 
L 15.828125 75.875 
Q 23.140625 64.359375 26.78125 53.3125 
Q 30.421875 42.28125 30.421875 31.390625 
Q 30.421875 20.453125 26.78125 9.375 
Q 23.140625 -1.703125 15.828125 -13.1875 
L 8.015625 -13.1875 
Q 14.5 -2 17.703125 9.0625 
Q 20.90625 20.125 20.90625 31.390625 
Q 20.90625 42.671875 17.703125 53.65625 
Q 14.5 64.65625 8.015625 75.875 
z
" id="DejaVuSans-41"/>
      </defs>
      <use xlink:href="#DejaVuSans-106"/>
      <use x="27.783203" xlink:href="#DejaVuSans-105"/>
      <use x="55.566406" xlink:href="#DejaVuSans-109"/>
      <use x="152.978516" xlink:href="#DejaVuSans-112"/>
      <use x="216.455078" xlink:href="#DejaVuSans-111"/>
      <use x="277.636719" xlink:href="#DejaVuSans-114"/>
      <use x="318.75" xlink:href="#DejaVuSans-116"/>
      <use x="357.958984" xlink:href="#DejaVuSans-101"/>
      <use x="419.482422" xlink:href="#DejaVuSans-114"/>
      <use x="460.595703" xlink:href="#DejaVuSans-47"/>
      <use x="494.287109" xlink:href="#DejaVuSans-98"/>
      <use x="557.763672" xlink:href="#DejaVuSans-101"/>
      <use x="619.287109" xlink:href="#DejaVuSans-110"/>
      <use x="682.666016" xlink:href="#DejaVuSans-99"/>
      <use x="737.646484" xlink:href="#DejaVuSans-111"/>
      <use x="798.828125" xlink:href="#DejaVuSans-100"/>
      <use x="862.304688" xlink:href="#DejaVuSans-101"/>
      <use x="923.828125" xlink:href="#DejaVuSans-32"/>
      <use x="955.615234" xlink:href="#DejaVuSans-40"/>
      <use x="994.628906" xlink:href="#DejaVuSans-98"/>
      <use x="1058.105469" xlink:href="#DejaVuSans-111"/>
      <use x="1119.287109" xlink:href="#DejaVuSans-111"/>
      <use x="1180.46875" xlink:href="#DejaVuSans-115"/>
      <use x="1232.568359" xlink:href="#DejaVuSans-116"/>
      <use x="1271.777344" xlink:href="#DejaVuSans-41"/>
     </g>
    </g>
    <g id="patch_57">
     <path d="M 542.1625 86.110938 
L 562.1625 86.110938 
L 562.1625 79.110938 
L 542.1625 79.110938 
z
" style="fill:#9467bd;"/>
    </g>
    <g id="text_18">
     <!-- kriben/bencode -->
     <g transform="translate(570.1625 86.110938)scale(0.1 -0.1)">
      <use xlink:href="#DejaVuSans-107"/>
      <use x="57.910156" xlink:href="#DejaVuSans-114"/>
      <use x="99.023438" xlink:href="#DejaVuSans-105"/>
      <use x="126.806641" xlink:href="#DejaVuSans-98"/>
      <use x="190.283203" xlink:href="#DejaVuSans-101"/>
      <use x="251.806641" xlink:href="#DejaVuSans-110"/>
      <use x="315.185547" xlink:href="#DejaVuSans-47"/>
      <use x="348.876953" xlink:href="#DejaVuSans-98"/>
      <use x="412.353516" xlink:href="#DejaVuSans-101"/>
      <use x="473.876953" xlink:href="#DejaVuSans-110"/>
      <use x="537.255859" xlink:href="#DejaVuSans-99"/>
      <use x="592.236328" xlink:href="#DejaVuSans-111"/>
      <use x="653.417969" xlink:href="#DejaVuSans-100"/>
      <use x="716.894531" xlink:href="#DejaVuSans-101"/>
     </g>
    </g>
    <g id="patch_58">
     <path d="M 542.1625 100.789062 
L 562.1625 100.789062 
L 562.1625 93.789062 
L 542.1625 93.789062 
z
" style="fill:#8c564b;"/>
    </g>
    <g id="text_19">
     <!-- rakshasa/libtorrent -->
     <g transform="translate(570.1625 100.789062)scale(0.1 -0.1)">
      <use xlink:href="#DejaVuSans-114"/>
      <use x="41.113281" xlink:href="#DejaVuSans-97"/>
      <use x="102.392578" xlink:href="#DejaVuSans-107"/>
      <use x="160.302734" xlink:href="#DejaVuSans-115"/>
      <use x="212.402344" xlink:href="#DejaVuSans-104"/>
      <use x="275.78125" xlink:href="#DejaVuSans-97"/>
      <use x="337.060547" xlink:href="#DejaVuSans-115"/>
      <use x="389.160156" xlink:href="#DejaVuSans-97"/>
      <use x="450.439453" xlink:href="#DejaVuSans-47"/>
      <use x="484.130859" xlink:href="#DejaVuSans-108"/>
      <use x="511.914062" xlink:href="#DejaVuSans-105"/>
      <use x="539.697266" xlink:href="#DejaVuSans-98"/>
      <use x="603.173828" xlink:href="#DejaVuSans-116"/>
      <use x="642.382812" xlink:href="#DejaVuSans-111"/>
      <use x="703.564453" xlink:href="#DejaVuSans-114"/>
      <use x="742.927734" xlink:href="#DejaVuSans-114"/>
      <use x="781.791016" xlink:href="#DejaVuSans-101"/>
      <use x="843.314453" xlink:href="#DejaVuSans-110"/>
      <use x="906.693359" xlink:href="#DejaVuSans-116"/>
     </g>
    </g>
    <g id="patch_59">
     <path d="M 542.1625 115.467187 
L 562.1625 115.467187 
L 562.1625 108.467187 
L 542.1625 108.467187 
z
" style="fill:#e377c2;"/>
    </g>
    <g id="text_20">
     <!-- s3ponia/BencodeParser -->
     <g transform="translate(570.1625 115.467187)scale(0.1 -0.1)">
      <defs>
       <path d="M 40.578125 39.3125 
Q 47.65625 37.796875 51.625 33 
Q 55.609375 28.21875 55.609375 21.1875 
Q 55.609375 10.40625 48.1875 4.484375 
Q 40.765625 -1.421875 27.09375 -1.421875 
Q 22.515625 -1.421875 17.65625 -0.515625 
Q 12.796875 0.390625 7.625 2.203125 
L 7.625 11.71875 
Q 11.71875 9.328125 16.59375 8.109375 
Q 21.484375 6.890625 26.8125 6.890625 
Q 36.078125 6.890625 40.9375 10.546875 
Q 45.796875 14.203125 45.796875 21.1875 
Q 45.796875 27.640625 41.28125 31.265625 
Q 36.765625 34.90625 28.71875 34.90625 
L 20.21875 34.90625 
L 20.21875 43.015625 
L 29.109375 43.015625 
Q 36.375 43.015625 40.234375 45.921875 
Q 44.09375 48.828125 44.09375 54.296875 
Q 44.09375 59.90625 40.109375 62.90625 
Q 36.140625 65.921875 28.71875 65.921875 
Q 24.65625 65.921875 20.015625 65.03125 
Q 15.375 64.15625 9.8125 62.3125 
L 9.8125 71.09375 
Q 15.4375 72.65625 20.34375 73.4375 
Q 25.25 74.21875 29.59375 74.21875 
Q 40.828125 74.21875 47.359375 69.109375 
Q 53.90625 64.015625 53.90625 55.328125 
Q 53.90625 49.265625 50.4375 45.09375 
Q 46.96875 40.921875 40.578125 39.3125 
z
" id="DejaVuSans-51"/>
       <path d="M 19.671875 64.796875 
L 19.671875 37.40625 
L 32.078125 37.40625 
Q 38.96875 37.40625 42.71875 40.96875 
Q 46.484375 44.53125 46.484375 51.125 
Q 46.484375 57.671875 42.71875 61.234375 
Q 38.96875 64.796875 32.078125 64.796875 
z
M 9.8125 72.90625 
L 32.078125 72.90625 
Q 44.34375 72.90625 50.609375 67.359375 
Q 56.890625 61.8125 56.890625 51.125 
Q 56.890625 40.328125 50.609375 34.8125 
Q 44.34375 29.296875 32.078125 29.296875 
L 19.671875 29.296875 
L 19.671875 0 
L 9.8125 0 
z
" id="DejaVuSans-80"/>
      </defs>
      <use xlink:href="#DejaVuSans-115"/>
      <use x="52.099609" xlink:href="#DejaVuSans-51"/>
      <use x="115.722656" xlink:href="#DejaVuSans-112"/>
      <use x="179.199219" xlink:href="#DejaVuSans-111"/>
      <use x="240.380859" xlink:href="#DejaVuSans-110"/>
      <use x="303.759766" xlink:href="#DejaVuSans-105"/>
      <use x="331.542969" xlink:href="#DejaVuSans-97"/>
      <use x="392.822266" xlink:href="#DejaVuSans-47"/>
      <use x="426.513672" xlink:href="#DejaVuSans-66"/>
      <use x="495.117188" xlink:href="#DejaVuSans-101"/>
      <use x="556.640625" xlink:href="#DejaVuSans-110"/>
      <use x="620.019531" xlink:href="#DejaVuSans-99"/>
      <use x="675" xlink:href="#DejaVuSans-111"/>
      <use x="736.181641" xlink:href="#DejaVuSans-100"/>
      <use x="799.658203" xlink:href="#DejaVuSans-101"/>
      <use x="861.181641" xlink:href="#DejaVuSans-80"/>
      <use x="916.984375" xlink:href="#DejaVuSans-97"/>
      <use x="978.263672" xlink:href="#DejaVuSans-114"/>
      <use x="1019.376953" xlink:href="#DejaVuSans-115"/>
      <use x="1071.476562" xlink:href="#DejaVuSans-101"/>
      <use x="1133" xlink:href="#DejaVuSans-114"/>
     </g>
    </g>
    <g id="patch_60">
     <path d="M 542.1625 130.145312 
L 562.1625 130.145312 
L 562.1625 123.145312 
L 542.1625 123.145312 
z
" style="fill:#7f7f7f;"/>
    </g>
    <g id="text_21">
     <!-- s3rvac/cpp-bencoding -->
     <g transform="translate(570.1625 130.145312)scale(0.1 -0.1)">
      <defs>
       <path d="M 4.890625 31.390625 
L 31.203125 31.390625 
L 31.203125 23.390625 
L 4.890625 23.390625 
z
" id="DejaVuSans-45"/>
      </defs>
      <use xlink:href="#DejaVuSans-115"/>
      <use x="52.099609" xlink:href="#DejaVuSans-51"/>
      <use x="115.722656" xlink:href="#DejaVuSans-114"/>
      <use x="156.835938" xlink:href="#DejaVuSans-118"/>
      <use x="216.015625" xlink:href="#DejaVuSans-97"/>
      <use x="277.294922" xlink:href="#DejaVuSans-99"/>
      <use x="332.275391" xlink:href="#DejaVuSans-47"/>
      <use x="365.966797" xlink:href="#DejaVuSans-99"/>
      <use x="420.947266" xlink:href="#DejaVuSans-112"/>
      <use x="484.423828" xlink:href="#DejaVuSans-112"/>
      <use x="547.900391" xlink:href="#DejaVuSans-45"/>
      <use x="583.984375" xlink:href="#DejaVuSans-98"/>
      <use x="647.460938" xlink:href="#DejaVuSans-101"/>
      <use x="708.984375" xlink:href="#DejaVuSans-110"/>
      <use x="772.363281" xlink:href="#DejaVuSans-99"/>
      <use x="827.34375" xlink:href="#DejaVuSans-111"/>
      <use x="888.525391" xlink:href="#DejaVuSans-100"/>
      <use x="952.001953" xlink:href="#DejaVuSans-105"/>
      <use x="979.785156" xlink:href="#DejaVuSans-110"/>
      <use x="1043.164062" xlink:href="#DejaVuSans-103"/>
     </g>
    </g>
    <g id="patch_61">
     <path d="M 542.1625 144.823437 
L 562.1625 144.823437 
L 562.1625 137.823437 
L 542.1625 137.823437 
z
" style="fill:#bcbd22;"/>
    </g>
    <g id="text_22">
     <!-- theanti9/cppbencode -->
     <g transform="translate(570.1625 144.823437)scale(0.1 -0.1)">
      <defs>
       <path d="M 10.984375 1.515625 
L 10.984375 10.5 
Q 14.703125 8.734375 18.5 7.8125 
Q 22.3125 6.890625 25.984375 6.890625 
Q 35.75 6.890625 40.890625 13.453125 
Q 46.046875 20.015625 46.78125 33.40625 
Q 43.953125 29.203125 39.59375 26.953125 
Q 35.25 24.703125 29.984375 24.703125 
Q 19.046875 24.703125 12.671875 31.3125 
Q 6.296875 37.9375 6.296875 49.421875 
Q 6.296875 60.640625 12.9375 67.421875 
Q 19.578125 74.21875 30.609375 74.21875 
Q 43.265625 74.21875 49.921875 64.515625 
Q 56.59375 54.828125 56.59375 36.375 
Q 56.59375 19.140625 48.40625 8.859375 
Q 40.234375 -1.421875 26.421875 -1.421875 
Q 22.703125 -1.421875 18.890625 -0.6875 
Q 15.09375 0.046875 10.984375 1.515625 
z
M 30.609375 32.421875 
Q 37.25 32.421875 41.125 36.953125 
Q 45.015625 41.5 45.015625 49.421875 
Q 45.015625 57.28125 41.125 61.84375 
Q 37.25 66.40625 30.609375 66.40625 
Q 23.96875 66.40625 20.09375 61.84375 
Q 16.21875 57.28125 16.21875 49.421875 
Q 16.21875 41.5 20.09375 36.953125 
Q 23.96875 32.421875 30.609375 32.421875 
z
" id="DejaVuSans-57"/>
      </defs>
      <use xlink:href="#DejaVuSans-116"/>
      <use x="39.208984" xlink:href="#DejaVuSans-104"/>
      <use x="102.587891" xlink:href="#DejaVuSans-101"/>
      <use x="164.111328" xlink:href="#DejaVuSans-97"/>
      <use x="225.390625" xlink:href="#DejaVuSans-110"/>
      <use x="288.769531" xlink:href="#DejaVuSans-116"/>
      <use x="327.978516" xlink:href="#DejaVuSans-105"/>
      <use x="355.761719" xlink:href="#DejaVuSans-57"/>
      <use x="419.384766" xlink:href="#DejaVuSans-47"/>
      <use x="453.076172" xlink:href="#DejaVuSans-99"/>
      <use x="508.056641" xlink:href="#DejaVuSans-112"/>
      <use x="571.533203" xlink:href="#DejaVuSans-112"/>
      <use x="635.009766" xlink:href="#DejaVuSans-98"/>
      <use x="698.486328" xlink:href="#DejaVuSans-101"/>
      <use x="760.009766" xlink:href="#DejaVuSans-110"/>
      <use x="823.388672" xlink:href="#DejaVuSans-99"/>
      <use x="878.369141" xlink:href="#DejaVuSans-111"/>
      <use x="939.550781" xlink:href="#DejaVuSans-100"/>
      <use x="1003.027344" xlink:href="#DejaVuSans-101"/>
     </g>
    </g>
   </g>
  </g>
 </g>
 <defs>
  <clipPath id="pc9714c8b0c">
   <rect height="235.4" width="462.25" x="47.8" y="10.8"/>
  </clipPath>
 </defs>
</svg>
